<?xml version="1.0" encoding="utf-8"?>
<!-- Generator: Adobe Illustrator 22.1.0, SVG Export Plug-In . SVG Version: 6.00 Build 0)  -->
<svg version="1.1" id="Layer_1" xmlns="http://www.w3.org/2000/svg" xmlns:xlink="http://www.w3.org/1999/xlink" x="0px" y="0px"
	 viewBox="0 0 116.8 21" style="enable-background:new 0 0 116.8 21;" xml:space="preserve">
<style type="text/css">
	.st0{opacity:0.7;}
	.st1{fill:#FFFFFF;}
	.st2{opacity:0.7;fill:#FFFFFF;}
</style>
<g>
	<g>
		<g class="st0">
			<path class="st1" d="M14.6,13h-11c-0.8,0-1.4,0.6-1.4,1.4c0,0.8,0.6,1.4,1.4,1.4h11c0.8,0,1.4-0.6,1.4-1.4
				C16,13.6,15.3,13,14.6,13"/>
		</g>
		<g class="st0">
			<path class="st1" d="M107.6,0c-0.5,0-1,0.3-1.3,0.8l-7.8,18.2c-0.3,0.7,0,1.5,0.7,1.8c0.2,0.1,0.4,0.1,0.5,0.1
				c0.5,0,1-0.3,1.3-0.8l7.8-18.2c0.3-0.7,0-1.5-0.7-1.8C108,0,107.8,0,107.6,0"/>
		</g>
		<g>
			<path class="st2" d="M22.1,0.1c-0.8,0-1.4,0.6-1.4,1.4v18.1c0,0.8,0.6,1.4,1.4,1.4s1.4-0.6,1.4-1.4V1.5
				C23.4,0.7,22.8,0.1,22.1,0.1"/>
			<path class="st2" d="M74.9,4.3c-0.8,0-1.4,0.6-1.4,1.4v13.9c0,0.8,0.6,1.4,1.4,1.4c0.8,0,1.4-0.6,1.4-1.4V5.7
				C76.2,4.9,75.6,4.3,74.9,4.3"/>
			<path class="st2" d="M82.2,0.2c-0.8,0-1.4,0.6-1.4,1.4v18.1c0,0.8,0.6,1.4,1.4,1.4c0.8,0,1.4-0.6,1.4-1.4V1.5
				C83.6,0.8,83,0.2,82.2,0.2"/>
			<path class="st2" d="M45.6,0c-0.2,0-0.4,0-0.5,0.1c-0.7,0.3-1,1.1-0.7,1.8l7.8,18.2c0.2,0.5,0.7,0.8,1.3,0.8c0.2,0,0.4,0,0.5-0.1
				c0.7-0.3,1-1.1,0.7-1.8L46.9,0.8C46.6,0.3,46.1,0,45.6,0"/>
			<path class="st2" d="M9.2,0c-0.5,0-1,0.3-1.3,0.8L0.1,19.1c-0.3,0.7,0,1.5,0.7,1.8C1,20.9,1.2,21,1.4,21c0.5,0,1-0.3,1.3-0.8
				l7.8-18.2c0.3-0.7,0-1.5-0.7-1.8C9.6,0,9.4,0,9.2,0"/>
			<path class="st2" d="M107.6,0c-0.2,0-0.4,0-0.5,0.1c-0.7,0.3-1,1.1-0.7,1.8l7.8,18.2c0.2,0.5,0.7,0.8,1.3,0.8
				c0.2,0,0.4,0,0.5-0.1c0.7-0.3,1-1.1,0.7-1.8l-7.8-18.2C108.6,0.3,108.1,0,107.6,0"/>
			<path class="st2" d="M69.4,0c-0.5,0-1,0.3-1.3,0.8l-7.8,18.2c-0.3,0.7,0,1.5,0.7,1.8c0.2,0.1,0.4,0.1,0.5,0.1
				c0.5,0,1-0.3,1.3-0.8l7.8-18.2c0.3-0.7,0-1.5-0.7-1.8C69.7,0,69.5,0,69.4,0"/>
		</g>
	</g>
	<g>
		<g>
			<path class="st2" d="M51.2,13H40c-0.8,0-1.4,0.6-1.4,1.4c0,0.8,0.6,1.4,1.4,1.4h11.2c0.8,0,1.4-0.6,1.4-1.4
				C52.6,13.6,52,13,51.2,13"/>
			<path class="st1" d="M100.7,14.4L100.7,14.4c0-0.8,0.6-1.4,1.4-1.4h11.2c0.8,0,1.4,0.6,1.4,1.4s-0.6,1.4-1.4,1.4H102
				C101.3,15.8,100.7,15.1,100.7,14.4z"/>
		</g>
		<g>
			<path class="st1" d="M20.7,19.6L20.7,19.6c0-0.8,0.6-1.4,1.4-1.4h11c0.8,0,1.4,0.6,1.4,1.4c0,0.8-0.6,1.4-1.4,1.4H22
				C21.3,20.9,20.7,20.3,20.7,19.6z"/>
			<path class="st1" d="M74.8,2.7L74.8,2.7c-0.8,0-1.4-0.6-1.4-1.4S74.1,0,74.8,0c0.8,0,1.4,0.6,1.4,1.4S75.6,2.7,74.8,2.7z"/>
			<path class="st1" d="M37.2,20.8L37.2,20.8c-0.7-0.3-1-1.1-0.7-1.8l7.8-18.2c0.3-0.7,1.1-1,1.8-0.7s1,1.1,0.7,1.8L39,20.1
				C38.7,20.8,37.9,21.1,37.2,20.8z"/>
			<path class="st1" d="M62.1,20.8L62.1,20.8c0.7-0.3,1-1.1,0.7-1.8L54.9,0.8c-0.3-0.7-1.1-1-1.8-0.7s-1,1.1-0.7,1.8l7.8,18.2
				C60.6,20.8,61.4,21.1,62.1,20.8z"/>
			<path class="st1" d="M17.5,20.8L17.5,20.8c0.7-0.3,1-1.1,0.7-1.8L10.4,0.8c-0.3-0.7-1.1-1-1.8-0.7s-1,1.1-0.7,1.8l7.8,18.2
				C16,20.8,16.8,21.1,17.5,20.8z"/>
			<path class="st1" d="M98.4,9.8C98,4.4,93.6,0.2,88.2,0.2h-6.1c-0.6,0-1.2,0.5-1.3,1.1c-0.1,0.7,0.5,1.3,1.2,1.3h6.2
				c4.4,0,8,3.8,7.8,8.4c-0.2,4.3-3.8,7.6-8.1,7.6h-5.8c-0.6,0-1.2,0.5-1.3,1.1c-0.1,0.7,0.5,1.3,1.2,1.3h5.8
				C94,21,98.9,15.9,98.4,9.8z"/>
		</g>
	</g>
</g>
</svg>
