<?xml version="1.0" encoding="utf-8"?>
<!-- Generator: Adobe Illustrator 16.0.3, SVG Export Plug-In . SVG Version: 6.00 Build 0)  -->
<!DOCTYPE svg PUBLIC "-//W3C//DTD SVG 1.1//EN" "http://www.w3.org/Graphics/SVG/1.1/DTD/svg11.dtd">
<svg version="1.1" id="Layer_1" xmlns="http://www.w3.org/2000/svg" xmlns:xlink="http://www.w3.org/1999/xlink" x="0px" y="0px"
	 width="305.336px" height="56.855px" viewBox="0 0 305.336 56.855" enable-background="new 0 0 305.336 56.855"
	 xml:space="preserve">
<g>
	<polygon fill="#365EA8" points="233.291,20.53 255.138,20.53 255.138,14.273 233.291,14.273 233.291,10.192 256.251,10.192 
		256.251,3.475 224.877,3.475 224.877,31.977 256.591,31.977 256.591,25.322 233.291,25.322 	"/>
	<polygon fill="#365EA8" points="158.863,31.977 167.335,31.977 167.335,22.438 188.013,22.438 188.013,15.731 167.335,15.731 
		167.335,10.192 188.82,10.192 188.82,3.475 158.863,3.475 	"/>
	<polygon fill="#365EA8" points="201.423,3.475 192.24,3.475 192.24,31.977 221.449,31.977 221.449,24.606 201.423,24.606 	"/>
	<polygon fill="#365EA8" points="288.915,17.804 302.44,3.475 290.581,3.475 281.71,13.718 272.977,3.475 261.229,3.475 
		274.493,17.804 260.011,31.977 272.428,31.977 281.71,21.783 290.982,31.977 303.14,31.977 	"/>
	<path fill="#365EA8" d="M154.435,27.383c0.359-1.011,0.611-2.427,0.761-4.135c0.146-1.564,0.248-3.377,0.248-5.489
		c0-1.974-0.102-3.797-0.196-5.356c-0.201-1.862-0.453-3.322-0.813-4.329c-0.701-2.675-2.824-4.386-6.054-4.742
		c-2.262-0.461-6.801-0.607-12.901-0.607c-6.211,0-10.742,0.146-13.067,0.607c-3.228,0.356-5.303,2.067-6.002,4.742
		c-0.194,1.007-0.406,2.467-0.601,4.329c-0.104,1.512-0.205,3.284-0.205,5.356c0,2.112,0.102,3.925,0.256,5.489
		c0.144,1.708,0.355,3.124,0.55,4.135c0.699,2.675,2.774,4.544,6.002,4.943c2.325,0.196,6.856,0.404,13.067,0.404
		c6.101,0,10.64-0.208,12.901-0.404C151.61,31.927,153.733,30.058,154.435,27.383z M127.759,24.956
		c-1.363-0.187-2.377-0.794-2.875-1.708c-0.146-0.248-0.246-0.503-0.346-0.759c0-0.806-0.264-2.318-0.264-4.04
		c0-2.808,0.264-4.892,0.609-5.844c0.045-0.104,0.045-0.151,0.094-0.203c0.261-0.647,1.017-1.352,1.971-1.666
		c0.811-0.196,3.833-0.402,8.531-0.402c4.025,0,6.703,0.206,7.856,0.402c1.067,0,1.874,0.511,2.226,1.167
		c0.102,0.106,0.241,0.295,0.399,0.499c0.206,0.453,0.458,1.056,0.558,1.718c0,0.796,0.205,2.469,0.205,4.539
		c0,1.661-0.205,3.024-0.358,3.83c0,0.256-0.095,0.511-0.198,0.759c-0.256,0.345-0.553,0.704-0.801,0.914
		c-0.518,0.343-1.664,0.794-2.832,0.794c-1.16,0-3.579,0.206-7.055,0.206C131.739,25.162,129.071,24.956,127.759,24.956z"/>
	<polygon fill="#365EA8" points="112.116,12.532 112.116,3.3 102.584,3.3 102.584,12.532 102.584,23.378 102.584,32.456 
		112.116,32.456 112.116,23.378 	"/>
	<path fill="#365EA8" d="M98.056,29.843c0.757-1.17,1.109-2.831,1.109-5.151c0-0.551,0-1.011-0.051-1.465
		c-0.203-2.271-1.008-3.78-2.219-4.442c-0.555-0.356-1.717-0.697-2.877-0.855c1.52-0.456,2.677-1.36,3.281-2.308
		c0.298-0.572,0.558-1.777,0.709-3.24c0-0.393,0.047-0.851,0.047-1.309c0-1.867-0.198-3.385-0.548-4.381
		c-0.463-0.97-1.167-1.864-1.97-2.333c-0.709-0.496-2.22-1.049-4.094-1.049c-0.796,0-3.621-0.16-8.01-0.16H62.807v9.231v10.846
		v9.078h20.819c4.699,0,7.818,0,8.733,0c1.51,0,2.819-0.398,3.627-0.766C96.695,31.197,97.657,30.537,98.056,29.843z M71.124,14.895
		v-2.514v-2.47h12.311c2.668,0,4.389,0.154,4.537,0.154c0.808,0.248,1.358,1.159,1.358,2.315c0,1.155-0.407,1.857-1.153,2.327
		c-0.354,0-2.074,0.187-4.742,0.187H71.124z M83.626,25.498H71.124v-2.271v-2.271h12.502c3.186,0,5.153,0.145,5.51,0.145
		c0.802,0.21,1.305,0.963,1.305,2.069c0,0,0,0,0,0.057c0,1.11-0.35,1.914-1.11,2.063c-0.407,0-1.005,0.208-1.358,0.208
		C87.624,25.498,86.103,25.498,83.626,25.498z"/>
	<g>
		<path fill="#ED1D24" d="M16.101,24.027c1.76-2.713,1.839-6.074,0-8.177c-0.078-0.076-0.156-0.184-0.234-0.261
			c-2.55-2.522-6.943-2.106-9.858,0.864l-3.812,3.787v4.465l6.045-5.907c1.525-1.661,3.573-1.765,4.813-0.584
			c1.232,1.261,1.05,3.447-0.395,4.919l-8.755,8.703l-1.708,1.727v4.628L15.02,25.393C15.444,24.946,15.784,24.499,16.101,24.027z"
			/>
		<path fill="#ED1D24" d="M16.101,31.75l2.311-2.283c0.869-0.896,1.605-1.843,2.238-2.839c2.993-4.813,3.1-10.593,0-14.433
			c-0.209-0.26-0.449-0.496-0.686-0.731c-1.104-1.127-2.418-1.948-3.863-2.444c-4.368-1.496-9.807-0.134-13.904,3.731v4.439
			l2.233-2.155c3.364-3.444,8.253-4.284,11.671-2.129c0.473,0.291,0.895,0.63,1.285,1.032c3.232,3.147,2.792,9.114-1,13.005
			l-0.285,0.318L3.563,39.771l-1.366,1.312v4.547l6.966-6.992L16.101,31.75z"/>
		<path fill="#ED1D24" d="M42.101,26.601c3.066,0,6.169-1.18,8.505-3.548c4.735-4.676,4.735-12.353-0.022-17.006
			c-2.338-2.39-5.416-3.574-8.482-3.6c-3.105,0-6.208,1.21-8.553,3.6c-4.755,4.624-4.729,12.301,0,17.006
			C35.893,25.421,38.995,26.601,42.101,26.601z M35.994,8.361c1.705-1.679,3.894-2.553,6.106-2.553c2.203,0,4.406,0.874,6.09,2.602
			c3.495,3.42,3.495,8.863,0,12.249c-1.684,1.682-3.887,2.549-6.09,2.549c-2.213,0-4.428-0.867-6.106-2.604
			C32.474,17.273,32.474,11.802,35.994,8.361z"/>
		<path fill="#ED1D24" d="M42.101,47.729c0.729-1.836,0.729-3.785,0-5.409c-0.271-0.582-0.641-1.106-1.086-1.578
			c-2.444-2.417-6.937-2.053-9.83,0.897l-1.649,1.652l-6.102,6.097l-2.784,2.787l-2.238,2.232h2.238h2.363l0.421-0.396l1.284-1.339
			l4.817-4.809l3.911-3.89c1.418-1.526,3.73-1.705,4.943-0.499c1.18,1.231,0.996,3.414-0.553,4.938l-6.043,5.994h4.491l3.86-3.807
			C41.015,49.76,41.671,48.761,42.101,47.729z"/>
		<path fill="#ED1D24" d="M16.101,39.036l4.549-4.494l1.389-1.398c0.471-0.498,0.945-0.997,1.396-1.549
			c6.413-7.775,6.914-18.527,0.706-24.758c-0.229-0.212-0.469-0.42-0.706-0.632c-0.866-0.762-1.817-1.396-2.784-1.918
			c-1.419-0.763-2.945-1.264-4.549-1.548C11.631,1.917,6.64,2.946,2.196,5.703v4.126c4.309-3.361,9.516-4.491,13.904-3.334
			c1.686,0.443,3.23,1.208,4.549,2.313c0.286,0.235,0.579,0.498,0.863,0.788c0.767,0.759,1.395,1.604,1.921,2.493
			c2.286,3.973,2.235,9.123,0,13.724c-0.712,1.471-1.655,2.889-2.784,4.177c-0.289,0.341-0.609,0.66-0.92,0.972
			c-0.842,0.921-2.132,2.235-3.629,3.709c-0.629,0.631-1.312,1.287-1.997,1.939L2.196,48.493v4.418l7.18-7.202L16.101,39.036z"/>
		<path fill="#ED1D24" d="M42.101,28.438c-4.025-0.814-8.473-0.182-12.565,1.846c-2.161,1.047-4.233,2.522-6.075,4.334l-0.026,0.053
			l-2.784,2.758l-4.549,4.574l-5.206,5.229l-7.172,7.175h4.282l8.096-8.069l3.889-3.89c0.211-0.214,0.42-0.423,0.66-0.632
			c0.999-0.999,1.942-1.94,2.784-2.78c0.842-0.845,1.576-1.58,2.157-2.161c1.232-1.18,2.544-2.204,3.944-3.023
			c4.042-2.361,8.642-3.022,12.565-1.759c1.836,0.578,3.512,1.58,4.936,3.023c4.832,4.705,4.649,12.958-0.211,19.291h4.021
			c4.623-7.409,4.389-16.345-1.079-21.948C47.641,30.359,44.986,29.019,42.101,28.438z"/>
		<path fill="#ED1D24" d="M45.167,36.536c-0.89-0.892-1.944-1.574-3.066-2.075c-3.792-1.606-8.604-0.951-12.565,1.73
			c-0.844,0.551-1.633,1.186-2.371,1.926l-3.73,3.73l-2.784,2.807l-2.632,2.631l-1.917,1.945l-5.127,5.177h4.471l0.656-0.629
			l0.789-0.788l3.76-3.783l2.784-2.791l6.102-6.152l0.095-0.1c3.734-3.554,9.151-4.18,12.471-1.579
			c0.206,0.157,0.387,0.34,0.597,0.527c3.179,3.286,2.838,8.698-0.597,12.51c-0.165,0.156-0.348,0.342-0.508,0.495l-2.285,2.29
			h2.793h1.621C48.954,49.099,49.716,41.083,45.167,36.536z"/>
	</g>
	<g>
		<g>
			<path fill="#365EA8" d="M207.563,42.202c0.35-0.07,0.853-0.108,1.337-0.108c0.748,0,1.229,0.134,1.566,0.438
				c0.264,0.24,0.425,0.609,0.425,1.027c0,0.714-0.454,1.187-1.024,1.376v0.029c0.416,0.142,0.663,0.523,0.791,1.086
				c0.176,0.754,0.307,1.274,0.421,1.481h-0.721c-0.091-0.159-0.212-0.615-0.36-1.286c-0.161-0.75-0.453-1.026-1.088-1.055h-0.652
				v2.341h-0.694V42.202z M208.257,44.666h0.713c0.748,0,1.22-0.413,1.22-1.028c0-0.695-0.509-1.002-1.242-1.01
				c-0.344,0-0.578,0.033-0.69,0.063V44.666z"/>
		</g>
		<path fill="#365EA8" d="M204.544,44.842c0-2.521,2.047-4.563,4.559-4.563l0,0c2.522,0,4.564,2.042,4.564,4.563l0,0
			c0,2.521-2.042,4.563-4.564,4.563l0,0C206.591,49.404,204.544,47.363,204.544,44.842L204.544,44.842z M205.102,44.842
			c0.009,2.212,1.792,4.002,4.001,4.008l0,0c2.214-0.006,4.009-1.796,4.009-4.008l0,0c0-2.212-1.795-4.002-4.009-4.004l0,0
			C206.894,40.84,205.11,42.63,205.102,44.842L205.102,44.842z"/>
	</g>
	<g>
		<path fill="#365EA8" d="M62.807,40.563h2.485v11.541h5.601v2.082h-8.086V40.563z"/>
		<path fill="#365EA8" d="M75.587,50.324l-1.174,3.861h-2.566l4.366-13.623h3.173l4.428,13.623h-2.668l-1.233-3.861H75.587z
			 M79.487,48.445l-1.071-3.354c-0.263-0.83-0.485-1.759-0.688-2.548h-0.04c-0.202,0.789-0.404,1.739-0.647,2.548l-1.05,3.354
			H79.487z"/>
		<path fill="#365EA8" d="M85.656,51.478c0.81,0.465,2.021,0.869,3.295,0.869c1.598,0,2.487-0.749,2.487-1.859
			c0-1.03-0.688-1.638-2.426-2.264c-2.244-0.809-3.679-2.002-3.679-3.963c0-2.224,1.859-3.922,4.811-3.922
			c1.476,0,2.567,0.323,3.274,0.688l-0.606,2.001c-0.484-0.262-1.436-0.647-2.708-0.647c-1.577,0-2.266,0.851-2.266,1.638
			c0,1.052,0.79,1.538,2.607,2.245c2.366,0.889,3.518,2.082,3.518,4.043c0,2.183-1.657,4.102-5.174,4.102
			c-1.435,0-2.931-0.423-3.68-0.867L85.656,51.478z"/>
		<path fill="#365EA8" d="M103.835,48.144H98.7v4h5.74v2.042h-8.227V40.563h7.924v2.042H98.7v3.517h5.135V48.144z"/>
		<path fill="#365EA8" d="M106.628,40.745c0.93-0.163,2.323-0.284,3.759-0.284c1.961,0,3.295,0.324,4.204,1.092
			c0.748,0.626,1.173,1.576,1.173,2.729c0,1.758-1.192,2.951-2.466,3.414v0.062c0.97,0.364,1.556,1.314,1.9,2.628
			c0.424,1.698,0.787,3.274,1.07,3.8h-2.566c-0.203-0.404-0.526-1.515-0.91-3.214c-0.384-1.779-1.03-2.344-2.445-2.385h-1.254v5.599
			h-2.465V40.745z M109.093,46.768h1.476c1.678,0,2.729-0.891,2.729-2.244c0-1.496-1.052-2.184-2.669-2.184
			c-0.788,0-1.294,0.062-1.536,0.123V46.768z"/>
		<path fill="#365EA8" d="M124.117,42.645h-3.881v-2.082h10.29v2.082h-3.923v11.541h-2.486V42.645z"/>
		<path fill="#365EA8" d="M134.612,40.563v5.457h5.762v-5.457h2.486v13.623h-2.486v-6.002h-5.762v6.002h-2.485V40.563H134.612z"/>
		<path fill="#365EA8" d="M153.337,48.144h-5.135v4h5.74v2.042h-8.227V40.563h7.924v2.042h-5.438v3.517h5.135V48.144z"/>
		<path fill="#365EA8" d="M156.13,40.745c0.93-0.163,2.324-0.284,3.76-0.284c1.961,0,3.296,0.324,4.205,1.092
			c0.748,0.626,1.172,1.576,1.172,2.729c0,1.758-1.192,2.951-2.466,3.414v0.062c0.97,0.364,1.557,1.314,1.899,2.628
			c0.425,1.698,0.788,3.274,1.072,3.8h-2.567c-0.202-0.404-0.525-1.515-0.91-3.214c-0.384-1.779-1.029-2.344-2.445-2.385h-1.254
			v5.599h-2.466V40.745z M158.596,46.768h1.476c1.679,0,2.729-0.891,2.729-2.244c0-1.496-1.051-2.184-2.669-2.184
			c-0.788,0-1.293,0.062-1.536,0.123V46.768z"/>
		<path fill="#365EA8" d="M170.508,50.324l-1.174,3.861h-2.566l4.366-13.623h3.174l4.427,13.623h-2.668l-1.233-3.861H170.508z
			 M174.409,48.445l-1.072-3.354c-0.264-0.83-0.485-1.759-0.687-2.548h-0.041c-0.202,0.789-0.404,1.739-0.647,2.548l-1.05,3.354
			H174.409z"/>
		<path fill="#365EA8" d="M180.639,40.745c0.89-0.163,2.122-0.284,3.799-0.284c1.819,0,3.155,0.383,4.024,1.111
			c0.808,0.668,1.332,1.739,1.332,3.013c0,1.292-0.403,2.365-1.172,3.093c-0.99,0.99-2.547,1.455-4.305,1.455
			c-0.466,0-0.889-0.021-1.212-0.082v5.135h-2.467V40.745z M183.105,47.092c0.303,0.08,0.706,0.099,1.212,0.099
			c1.859,0,2.991-0.909,2.991-2.504c0-1.518-1.052-2.325-2.77-2.325c-0.688,0-1.172,0.062-1.434,0.12V47.092z"/>
		<path fill="#365EA8" d="M194.732,54.186v-5.679l-4.308-7.944h2.831l1.638,3.495c0.466,1.012,0.809,1.779,1.172,2.71h0.041
			c0.345-0.869,0.727-1.718,1.192-2.71l1.638-3.495h2.81l-4.527,7.883v5.74H194.732z"/>
	</g>
</g>
</svg>
