<svg height="35" viewBox="0 0 168 35" width="168" xmlns="http://www.w3.org/2000/svg">
  <g fill="none" fill-rule="evenodd" transform="matrix(.7 0 0 .70556149 .000412 -.361392)">
    <g fill="#472d59">
      <path d="m0 7.5987594s12.143277-.6715545 21.428571-7.08655457c9.285295 6.41500007 21.428572 7.08217747 21.428572 7.08217747v17.6905887c0 18.953823-21.428572 24.833116-21.428572 24.833116s-21.42978914-5.879108-21.429159-24.832931z"/>
      <path d="m67.542735 34.707177h-7.647059c-.04912-1.470589-.189705-3.005589-.189705-4.566765v-4.719412-1.536765-4.665c0-1.548823.124117-3.092059.172941-4.628529l3.35647-.365883v-1.57647h-11.17647v1.57647l3.154412.329118c.04853 1.561177.08088 3.116471.08088 4.665294v4.665 1.536765 4.665294c0 1.548529-.03235 3.103824-.08088 4.664412l-3.154412.329706v1.685588h18.703235l.366176-7.058824h-2.56147z"/>
      <path d="m85.152471 25.854912c-.305294.365882-.896177.617059-1.774412.617059h-5.488235c.09735-1.176471.292647-2.092647.585294-2.849118.292647-.755882.652353-1.399706 1.079411-1.86353.426471-.462941.883824-.815882 1.372059-1.022941.487647-.206764.96353-.319411 1.426765-.319411.926765 0 1.70147.361764 2.323824 1.093529.621764.731765.932647 1.678235.932647 2.775882 0 .657941-.152353 1.202647-.457353 1.56853m2.36-5.154118c-.634412-.634118-1.396765-1.127941-2.286471-1.481765-.891177-.352941-1.872353-.530588-2.945588-.530588-1.22 0-2.366177.232647-3.439118.695588-1.073823.463824-2.006765 1.109706-2.799118 1.939118-.793235.829118-1.414999 1.82353-1.865882 2.982059-.451765 1.158529-.677353 2.433235-.677353 3.822941 0 1.44.201471 2.725882.603824 3.860294.402353 1.133824.975294 2.098236 1.72 2.890294.743823.79353 1.633529 1.396471 2.670588 1.811177 1.036765.415 2.201176.621764 3.494118.621764 1.780588 0 3.305-.401764 4.573823-1.207353 1.267941-.804705 2.182647-1.938529 2.744118-3.402058l-1.061177-.658824c-.61.829706-1.286764 1.481765-2.030588 1.957353-.744118.475883-1.677353.713824-2.799118.713824-1.634411 0-2.963529-.599118-3.987941-1.721765-1.024706-1.121471-1.56147-2.697353-1.61-5.050294h11.452353c.07294-.294118.13353-.529412.182941-.85853.04853-.329705.07294-.657647.07294-1.023529 0-1.121765-.177352-2.130588-.530588-3.045294-.353823-.915588-.847647-1.68-1.481764-2.314412"/>
      <path d="m101.64991 27.872088c-.57353.804706-1.3847 1.207647-2.433233 1.207647-1.024412 0-1.811177-.396176-2.36-1.189706-.548824-.791764-.823236-1.87147-.823236-3.237647 0-1.340882.28-2.414411.841765-3.22.560882-.804706 1.365588-1.206764 2.414706-1.206764 1.024408 0 1.816768.396764 2.377938 1.188823.56089.792647.84177 1.86.84177 3.201765 0 1.366176-.28677 2.451176-.85971 3.255882zm-4.793233 9.130883c.329411.03706.688823.05706 1.079411.05706h4.024702c.63383 0 1.15824.05882 1.57353.180883.41442.122059.74971.285882 1.00618.492647.25588.207059.43882.438529.54882.695294.10942.255882.16442.517647.16442.78647 0 .901765-.50647 1.676177-1.51853 2.322942-1.01265.645882-2.48206.969706-4.408828.969706-1.292941 0-2.335588-.232648-3.127941-.695883-.793235-.463529-1.189118-1.268529-1.189118-2.414117 0-.463824.07853-.896765.237354-1.299412.158529-.402059.384411-.809706.677352-1.224706.292353.04912.603236.09294.932648.129118zm7.226473-16.887353c-1.24412-.951471-2.84206-1.427353-4.793238-1.427353-1.024412 0-1.963824.140882-2.817059.420882-.854118.280882-1.586471.676765-2.195882 1.189412-.609706.512059-1.085589 1.140588-1.426471 1.884412-.342059.743823-.512353 1.567352-.512353 2.469411 0 1.170589.255882 2.182941.768235 3.036765.512353.854412 1.219706 1.536471 2.122353 2.049118-.781176.561764-1.390588 1.140588-1.829412 1.737647-.439411.598529-.658823 1.262353-.658823 1.994117 0 .585883.152059 1.140589.457353 1.664706.305.525294.810882.957353 1.518529 1.299118-1.170882.585-2.025 1.195-2.561176 1.829412-.536765.634117-.805 1.328823-.805 2.085294 0 1.170882.597353 2.11647 1.792647 2.836176 1.194706.718824 3.11 1.07853 5.744412 1.07853 1.658525 0 3.103525-.176765 4.335585-.53 1.23177-.353824 2.25618-.82353 3.07353-1.40853.81706-.585588 1.42706-1.262353 1.82971-2.030882.40235-.767941.60353-1.567647.60353-2.396471 0-1.390294-.50647-2.445-1.51853-3.22647-1.01235-.779706-2.665-1.140294-4.95735-1.140294h-3.878534c-.854118 0-1.47-.164118-1.847941-.432353-.378236-.26853-.566765-.685883-.566765-1.222647 0-.292647.055-.568236.164412-.812942.11-.243235.25-.502941.420882-.771764.414412.122059.847353.212059 1.298824.272059.451176.06176.920588.09088 1.408529.09088 1.024703 0 1.957353-.140294 2.799123-.421177.84176-.28 1.57352-.677058 2.19529-1.189705.62206-.512059 1.10323-1.14 1.44529-1.884412.34118-.743824.51206-1.632353.51206-2.56 0-1.170588-.26853-2.244412-.8047-3.126765h3.42323v-2.380588l-.50441-.365883-4.23588 1.390295z"/>
      <path d="m120.58823 33.214147c-.58823.561471-1.31088.945588-1.76205 1.152647-.45147.207647-.89618.310882-1.38412.310882-.87794 0-1.57324-.267941-2.10971-.804705-.21941-.22-.39058-.475883-.52441-.768824-.13412-.292647-.19823-.682647-.19823-1.170588 0-.658824.20853-1.310588.62382-1.957353.41441-.645883 1.28118-1.225588 2.59824-1.738235.34147-.122059.71352-.267942 1.21382-.438824.49941-.170294.95441-.341176 1.54264-.512059zm6.42824 1.060882c-.17088.195589-.35382.360589-.54882.493824-.1953.134706-.43.201765-.69794.201765-.70765 0-1.06383-.572941-1.06383-1.719706v-7.684118c0-2.536176-.47911-4.317353-1.44235-5.341176-.96412-1.024706-2.49324-1.537353-4.59059-1.537353-2.12206 0-3.84088.445882-5.15853 1.335588-1.31706.890588-2.09765 2.043235-2.34117 3.457647.0732.512059.28058.927647.62235 1.243823.34117.317648.78029.475589 1.31706.475589 1.2197 0 1.97588-.767647 2.26882-2.305l.51206-2.341177c.26824-.04912.53059-.08529.78647-.11.25647-.02412.49441-.03618.71382-.03618 1.19471 0 1.99324.317059 2.49353.950882.49971.634706.70088 1.781177.70088 3.439706v.987647c-.58823.195592-1.26235.383828-1.90823.566769-.64647.182941-1.18912.360588-1.67676.530882-1.31736.463824-2.38412.927353-3.22589 1.390294-.84117.463824-1.49382.945588-1.9697 1.445588-.4753.499706-.79589 1.005589-.96618 1.517648-.17118.512647-.2547 1.037352-.2547 1.573529 0 1.463529.47647 2.579706 1.42764 3.347647.95118.768824 2.12265 1.152647 3.51265 1.152647.56088 0 1.07353-.055 1.53706-.164117.46323-.11.89647-.274706 1.29912-.494706.40235-.219118.80499-.493824 1.20735-.822648.40265-.329117.82323-.713823 1.26235-1.152647.21971.756471.63412 1.35353 1.24412 1.792353.60941.439706 1.42706.658824 2.45117.658824.7803 0 1.44559-.158824 1.99442-.475882.54882-.316177 1.0547-.926765 1.51823-1.829412l-.84147-.731765z"/>
      <path d="m136.23538 31.951677c-.0123-.962942-.0588-1.920589-.0588-2.872059v-13.354412l.18706-5.195882-.45736-.292942-6.49441 1.646471v1.390588l2.94118.365588v15.440589c0 .95147-.0659 1.902353-.0779 2.854117-.0129.951471-.007 1.915-.0315 2.89l-2.53765.475883v1.46647h9.11765v-1.46647l-2.49236-.475883c-.0247-.950882-.0838-1.907647-.0959-2.872058"/>
      <path d="m156.82044 25.932824c-.53676-.609118-1.23206-1.176765-2.08529-1.701471-.85442-.523824-1.9153-1.017647-3.18324-1.481471l-1.68294-.621764c-1.31765-.487942-2.32382-1.042647-3.01882-1.665295-.695-.621764-1.04294-1.48147-1.04294-2.579117 0-.634118.12205-1.200882.36588-1.701471.24382-.5.57294-.914706.98823-1.243823.41441-.329706.90177-.579706 1.46353-.750294.56088-.170294 1.17059-.256177 1.82941-.256177.9753 0 1.93912.202647 2.8903.616765l.76823 4.276176h2.63471l.25588-4.897941c-.85411-.609118-1.82382-1.082353-2.90882-1.424117-1.08559-.341765-2.27471-.511471-3.56735-.511471-1.29295 0-2.46412.171471-3.51236.513529-1.04912.341765-1.94559.817647-2.68941 1.426765-.74412.609706-1.32353 1.341765-1.73794 2.195588-.41471.854412-.62177 1.805294-.62177 2.853824 0 1.829412.59089 3.347941 1.77442 4.555588 1.18294 1.207353 2.79882 2.201176 4.84823 2.981765l1.60941.585882c.73177.267941 1.35412.536765 1.86618.804706.51235.268823.93882.560882 1.28059.877647.34147.317941.59117.671765.75 1.061765.15823.389706.23794.840882.23794 1.353529 0 1.317353-.47 2.341177-1.40882 3.072941-.93912.731765-2.22589 1.097647-3.86 1.097647-.75618 0-1.42706-.07294-2.01236-.219117-.58529-.146765-1.15882-.435294-1.71941-.728236l-.73206-4.423823h-2.67059l-.22 5.338529c.92677.561471 2.04912 1.053236 3.36647 1.407059 1.31706.353236 2.67089.547353 4.06148.547353 1.36558 0 2.6097-.168235 3.73176-.521176 1.12147-.353824 2.08559-.849412 2.89029-1.496177.8053-.645882 1.43265-1.412353 1.88442-2.302941.45088-.889706.67676-1.870294.67676-2.943824 0-.755882-.11588-1.474999-.34735-2.158529-.23236-.682941-.61618-1.328235-1.15265-1.938823"/>
      <path d="m177.64706 31.896706v-2.817059-3.805588c0-2.316471-.39441-3.993824-1.24794-5.030294-.85412-1.036765-2.09412-1.555294-3.75236-1.555294-1.22 0-2.25294.268529-3.25264.804705-1.00059.537353-2.04118 1.354412-2.92353 2.451765v-6.219706l.0776-5.195882-.58617-.292941-6.5503 1.64647v1.390295l2.94118.365882v15.440588 2.780882c0 1.048824.0735 2.036471.0494 2.963236l-2.4023.475588v1.466765h8.82353v-1.466765l-2.31088-.475588c-.0244-.902059-.0421-1.884412-.0421-2.945v-2.799118-5.305294c.88235-.780588 1.60176-1.359412 2.34588-1.738235.74382-.377942 1.49912-.566765 2.28029-.566765.95118 0 1.55147.323529 1.92971.969706.37794.64647.50294 1.737353.50294 3.274706v3.365882 2.817059c0 1.049412.0729 2.025.0494 2.927059l-2.40235.475588v1.466765h8.82353v-1.466765l-2.31088-.475588c-.0244-.902059-.0421-1.877647-.0421-2.927059"/>
      <path d="m188.82353 31.878647v-2.799118-4.939117l.10059-5.086177-.50589-.365882-6.35941 2.269118v1.353529l2.62324.329118c.0238.73147.006 1.433235.03 2.104117.0241.670588-.006 1.506177-.006 2.506177v1.829117 2.781177c0 1.048529.0735 2.036176.0494 2.962941l-2.40235.475882v1.466471h8.82353v-1.466471l-2.31088-.475882c-.0244-.901765-.0421-1.884118-.0421-2.945"/>
      <path d="m204.28506 25.854912c-.3053.365882-.89618.617059-1.77441.617059h-5.48824c.0974-1.176471.29265-2.092647.58559-2.849118.29235-.755882.65206-1.399706 1.07912-1.86353.42647-.462941.88382-.815882 1.37206-1.022941.48764-.206764.96353-.319411 1.42676-.319411.92677 0 1.70147.361764 2.32382 1.093529.62177.731765.93265 1.678235.93265 2.775882 0 .657941-.15235 1.202647-.45735 1.56853m2.36-5.154118c-.63441-.634118-1.39677-1.127941-2.28647-1.481765-.89118-.352941-1.87236-.530588-2.94559-.530588-1.22 0-2.36618.232647-3.43912.695588-1.07353.463824-2.00676 1.109706-2.79912 1.939118-.79323.829118-1.415 1.82353-1.86588 2.982059-.45176 1.158529-.67706 2.433235-.67706 3.822941 0 1.44.20118 2.725882.60353 3.860294.40236 1.133824.9753 2.098236 1.72 2.890294.74383.79353 1.63353 1.396471 2.67059 1.811177 1.03677.415 2.20118.621764 3.49412.621764 1.78059 0 3.305-.401764 4.57382-1.207353 1.26794-.804705 2.18265-1.938529 2.74412-3.402058l-1.06118-.658824c-.61.829706-1.28676 1.481765-2.03059 1.957353-.74411.475883-1.67735.713824-2.79911.713824-1.63441 0-2.96353-.599118-3.98794-1.721765-1.02471-1.121471-1.56147-2.697353-1.61-5.050294h11.45235c.0729-.294118.13353-.529412.18294-.85853.0485-.329705.0729-.657647.0729-1.023529 0-1.121765-.17735-2.130588-.53059-3.045294-.35382-.915588-.84764-1.68-1.48176-2.314412"/>
      <path d="m216.85447 31.951677c-.0123-.962942-.0897-1.920589-.0897-2.872059v-13.354412l.21795-5.195882-.47265-.292942-6.51 1.646471v1.390588l2.94117.365588v15.440589c0 .95147-.035 1.902353-.047 2.854117-.013.951471-.0229 1.915-.0471 2.89l-2.55294.475883v1.46647h9.11764v-1.46647l-2.47706-.475883c-.0244-.950882-.0682-1.907647-.0803-2.872058"/>
      <path d="m233.23529 33.287176c-1.17647 1.024706-2.39647 1.536471-3.61588 1.536471-1.29323 0-2.33853-.554118-3.18029-1.664412-.84118-1.109706-1.25118-2.823235-1.25118-5.140294 0-1.17147.12677-2.189412.37118-3.055882.24353-.865.58206-1.584706 1.00882-2.158236.42647-.572941.91588-.993823 1.46471-1.262352.54882-.268236 1.08588-.402059 1.69558-.402059 1.07324 0 2.33059.499706 3.50706 1.499411zm4.11765 1.536471v-19.098529l.16118-5.195883-.44441-.292941-6.48148 1.646471v1.390588l2.94118.365882v7.244412c-1.47059-1.463529-2.9397-2.195294-4.84235-2.195294-1.09765 0-2.12853.219706-3.07971.658823-.95117.438824-1.77764 1.07353-2.47294 1.902353-.69529.829706-1.24559 1.824118-1.64794 2.981765-.40235 1.159412-.60471 2.458235-.60471 3.896765 0 1.440294.18265 2.725882.54853 3.860588.36589 1.13353.87147 2.097941 1.51824 2.89.64588.793529 1.42059 1.396471 2.32323 1.811177.90206.415 1.89.622058 2.96383.622058 1.12176 0 2.09735-.213823 2.92676-.64.82912-.426764 1.59736-1.030588 2.3053-1.811176l.33912 2.268235 6.19323-.365882v-1.46353z"/>
      <path d="m186.69223 14.714971c1.22412 0 2.21648-.992353 2.21648-2.216177 0-1.224117-.99236-2.21647-2.21648-2.21647-1.22411 0-2.21617.992353-2.21617 2.21647 0 1.223824.99206 2.216177 2.21617 2.216177"/>
    </g>
    <path d="m21.428571 3.3468267c-7.126765 4.5452941-15.7744239 5.4750851-19.2626592 6.0427321v15.8950002c0 7.126176 3.1214705 13.043235 9.2773532 17.587059 3.823529 2.822353 8.59207 4.241764 9.985306 4.693529" fill="#70468c"/>
    <path d="m20 33.819011h1.428571v-19.842369h-1.428571zm-2.857143 0h1.428572v-19.842369l-1.42916.0053zm12.228697-4.960588-1.514999 4.960588h-4.999412v-19.842369l2.856555-.708639v-1.417311h-7.032438-5.824117l-.000588 1.417311 2.857731.703373v19.847635l-2.857138.708656v1.417311h19.049705l.367353-7.086555z" fill="#fff"/>
  </g>
</svg>