<svg id="svg" xmlns="http://www.w3.org/2000/svg" xmlns:xlink="http://www.w3.org/1999/xlink" width="400" height="69.86349317465873" viewBox="0, 0, 400,69.86349317465873"><g id="svgg"><path id="path0" d="M40.542 39.597 C 39.052 41.103,37.833 42.407,37.833 42.496 C 37.833 42.586,37.193 43.424,36.410 44.361 C 30.516 51.410,26.071 60.287,24.909 67.333 C 24.670 68.780,24.680 68.800,25.764 68.984 C 26.215 69.061,27.370 69.288,28.331 69.490 C 30.904 70.029,38.704 69.944,41.250 69.349 C 43.220 68.889,45.979 68.065,46.917 67.657 C 49.409 66.572,50.132 66.236,50.500 65.989 C 50.729 65.836,51.246 65.532,51.648 65.313 C 52.666 64.761,54.736 63.403,55.286 62.926 C 55.398 62.829,55.728 62.563,56.020 62.333 C 59.361 59.710,62.512 55.855,64.883 51.488 L 65.478 50.393 63.554 49.773 C 56.714 47.566,49.944 43.427,45.003 38.431 C 44.134 37.552,43.384 36.839,43.337 36.846 C 43.289 36.853,42.031 38.091,40.542 39.597 " stroke="none" fill="#20b0ac" fill-rule="evenodd"></path><path id="path1" d="M21.692 22.576 C 17.277 31.224,9.622 41.004,2.871 46.622 L 1.848 47.473 2.257 48.278 C 2.481 48.721,2.666 49.137,2.666 49.203 C 2.668 49.610,5.432 54.688,5.820 55.000 C 5.878 55.046,6.047 55.277,6.198 55.514 C 8.131 58.558,12.617 62.758,16.250 64.926 C 16.708 65.199,17.233 65.516,17.417 65.629 C 17.802 65.866,20.473 67.167,20.575 67.167 C 20.613 67.167,21.130 67.392,21.724 67.667 C 22.318 67.942,22.914 68.167,23.048 68.167 C 23.183 68.167,23.562 68.279,23.891 68.417 C 24.220 68.554,24.522 68.667,24.561 68.667 C 24.600 68.667,24.720 68.160,24.827 67.542 C 26.114 60.088,30.880 50.644,36.775 43.866 C 37.357 43.196,37.833 42.568,37.833 42.469 C 37.833 42.260,36.593 39.783,36.180 39.167 C 36.026 38.938,35.811 38.541,35.701 38.285 C 35.591 38.030,35.421 37.730,35.322 37.619 C 35.224 37.508,34.846 36.892,34.482 36.250 C 33.889 35.203,33.106 33.925,32.299 32.686 C 32.143 32.446,31.815 31.898,31.570 31.468 C 31.325 31.038,31.021 30.647,30.895 30.598 C 30.770 30.550,30.667 30.433,30.667 30.339 C 30.667 30.175,29.871 28.985,29.047 27.917 C 28.835 27.642,28.607 27.342,28.539 27.250 C 26.866 24.973,25.111 22.818,23.685 21.292 C 22.744 20.285,22.919 20.172,21.692 22.576 " stroke="none" fill="#bbdbe3" fill-rule="evenodd"></path><path id="path2" d="M28.014 1.821 C 27.885 1.903,27.630 1.942,27.448 1.907 C 27.006 1.822,21.742 3.366,21.500 3.652 C 21.454 3.706,21.304 3.769,21.167 3.792 C 20.920 3.834,19.810 4.332,19.000 4.765 C 18.771 4.888,18.208 5.181,17.750 5.416 C 16.293 6.164,16.000 6.348,16.000 6.509 C 16.000 6.596,15.910 6.667,15.801 6.667 C 15.431 6.667,12.756 8.648,11.250 10.039 L 10.750 10.500 11.250 10.911 C 11.525 11.137,11.806 11.324,11.875 11.327 C 11.999 11.333,13.366 12.268,14.187 12.909 C 14.428 13.096,14.837 13.400,15.096 13.583 C 16.906 14.863,22.500 20.126,22.500 20.549 C 22.500 20.670,22.390 20.915,22.255 21.093 C 22.121 21.271,22.011 21.529,22.012 21.667 C 22.013 21.804,22.131 21.692,22.275 21.417 C 22.420 21.142,22.752 20.575,23.015 20.158 C 23.277 19.741,23.516 19.242,23.545 19.050 C 23.575 18.857,23.683 18.598,23.785 18.475 C 23.887 18.351,24.205 17.650,24.490 16.917 C 24.776 16.183,25.076 15.433,25.157 15.250 C 25.692 14.040,26.333 12.314,26.333 12.086 C 26.333 11.937,26.486 11.480,26.672 11.071 C 26.988 10.379,27.324 9.138,27.380 8.458 C 27.394 8.298,27.456 8.167,27.518 8.167 C 27.641 8.167,27.819 7.550,27.926 6.755 C 27.963 6.477,28.140 5.742,28.320 5.120 C 28.499 4.499,28.617 3.841,28.582 3.658 C 28.546 3.474,28.586 3.367,28.671 3.419 C 28.755 3.471,28.815 3.267,28.804 2.965 C 28.792 2.664,28.837 2.248,28.903 2.042 C 29.033 1.635,28.513 1.505,28.014 1.821 M21.011 23.497 C 20.546 24.321,20.167 25.028,20.167 25.068 C 20.167 25.109,19.789 25.758,19.327 26.510 C 18.866 27.262,18.519 27.908,18.557 27.946 C 18.638 28.027,20.131 25.536,21.247 23.458 C 22.275 21.545,22.094 21.574,21.011 23.497 M16.445 31.042 C 13.673 35.160,10.560 38.921,6.701 42.809 C 5.483 44.037,4.514 45.069,4.547 45.103 C 4.812 45.368,11.529 37.972,14.033 34.660 C 15.862 32.239,18.296 28.667,18.115 28.667 C 18.075 28.667,17.324 29.735,16.445 31.042 M0.042 38.250 C 0.044 38.617,0.078 38.747,0.118 38.540 C 0.158 38.332,0.156 38.032,0.115 37.873 C 0.073 37.714,0.040 37.883,0.042 38.250 M0.128 39.406 C 0.085 39.629,0.113 39.910,0.189 40.031 C 0.278 40.171,0.329 40.023,0.331 39.625 C 0.334 38.910,0.242 38.811,0.128 39.406 M0.167 40.667 C 0.167 40.850,0.242 41.000,0.333 41.000 C 0.425 41.000,0.500 40.850,0.500 40.667 C 0.500 40.483,0.425 40.333,0.333 40.333 C 0.242 40.333,0.167 40.483,0.167 40.667 M0.333 41.500 C 0.333 41.683,0.408 41.833,0.500 41.833 C 0.592 41.833,0.667 41.683,0.667 41.500 C 0.667 41.317,0.592 41.167,0.500 41.167 C 0.408 41.167,0.333 41.317,0.333 41.500 M0.499 42.125 C 0.492 42.723,1.826 47.333,2.005 47.333 C 2.057 47.333,2.620 46.839,3.258 46.236 L 4.417 45.138 3.333 46.068 C 2.008 47.206,1.912 47.202,1.738 46.000 C 1.719 45.862,1.500 45.112,1.253 44.333 C 1.007 43.554,0.806 42.710,0.808 42.458 C 0.810 42.206,0.741 42.000,0.656 42.000 C 0.570 42.000,0.499 42.056,0.499 42.125 " stroke="none" fill="#95aa98" fill-rule="evenodd"></path><path id="path3" d="M282.333 16.766 C 278.700 17.190,275.241 18.582,272.038 20.909 C 271.292 21.450,268.833 23.935,268.833 24.146 C 268.833 24.240,268.733 24.377,268.611 24.450 C 268.312 24.629,267.185 26.365,266.630 27.500 C 265.711 29.380,265.333 30.238,265.333 30.447 C 265.333 30.565,265.135 31.319,264.893 32.122 C 264.368 33.862,264.146 38.429,264.488 40.449 C 264.658 41.456,264.806 42.010,265.523 44.333 C 265.842 45.366,267.313 48.225,267.958 49.065 C 268.302 49.513,268.658 50.005,268.750 50.159 C 268.904 50.416,271.373 52.865,272.166 53.547 C 272.356 53.711,272.904 54.086,273.385 54.381 C 273.865 54.676,274.406 55.011,274.587 55.126 C 274.917 55.336,275.441 55.587,276.822 56.198 C 279.947 57.581,285.329 58.038,288.500 57.190 C 289.279 56.981,290.196 56.741,290.537 56.656 C 291.091 56.517,292.211 56.063,293.054 55.636 C 294.430 54.938,294.895 54.652,295.917 53.872 C 297.526 52.644,298.725 51.562,299.528 50.612 L 300.208 49.808 299.654 49.237 C 298.955 48.516,298.702 48.521,298.082 49.269 C 297.567 49.890,294.985 52.157,294.060 52.800 C 289.571 55.918,282.547 56.654,277.781 54.504 C 277.397 54.331,276.971 54.146,276.833 54.094 C 274.066 53.039,270.434 49.476,268.528 45.946 C 266.027 41.315,265.587 34.617,267.507 30.402 C 267.686 30.008,267.833 29.629,267.833 29.562 C 267.833 29.394,269.019 27.104,269.159 27.000 C 269.221 26.954,269.502 26.579,269.783 26.165 C 271.231 24.035,273.659 21.841,275.818 20.711 C 281.238 17.873,287.711 17.891,292.778 20.759 C 293.609 21.229,294.853 22.018,295.000 22.167 C 295.046 22.214,295.346 22.447,295.667 22.686 C 295.987 22.925,296.773 23.618,297.412 24.227 C 298.761 25.512,298.652 25.475,299.224 24.833 C 299.469 24.558,299.744 24.333,299.835 24.333 C 300.203 24.333,299.948 23.939,298.958 22.977 C 297.750 21.801,295.755 20.167,295.529 20.167 C 295.444 20.167,295.280 20.053,295.164 19.914 C 294.919 19.618,292.988 18.582,291.668 18.038 C 289.458 17.127,284.745 16.484,282.333 16.766 M361.357 16.915 C 360.683 17.039,359.933 17.217,359.691 17.310 C 359.448 17.403,359.025 17.527,358.750 17.586 C 358.211 17.701,357.066 18.264,355.627 19.121 C 353.903 20.147,351.018 23.177,349.996 25.034 C 349.475 25.981,348.633 27.725,348.402 28.333 C 348.211 28.837,348.180 28.151,348.174 23.292 L 348.167 17.667 347.167 17.667 L 346.167 17.667 346.167 37.167 L 346.167 56.667 347.156 56.667 L 348.146 56.667 348.199 45.042 L 348.251 33.417 348.709 32.121 C 348.961 31.409,349.167 30.749,349.167 30.654 C 349.167 30.389,349.788 29.045,350.972 26.750 C 353.272 22.292,358.072 19.019,362.979 18.562 L 364.182 18.451 364.133 17.600 L 364.083 16.750 363.333 16.720 C 362.921 16.703,362.032 16.791,361.357 16.915 M380.250 16.776 C 378.118 17.029,374.589 18.124,373.314 18.929 C 372.961 19.151,372.631 19.333,372.580 19.333 C 371.857 19.333,367.791 23.298,366.750 25.018 C 363.724 30.016,362.713 36.014,363.900 41.917 C 364.158 43.200,364.511 44.545,364.685 44.906 C 364.858 45.267,365.000 45.667,365.000 45.794 C 365.000 46.065,366.255 48.459,366.599 48.846 C 366.728 48.991,366.833 49.165,366.833 49.233 C 366.833 49.822,371.056 54.167,371.629 54.167 C 371.719 54.167,371.883 54.276,371.994 54.409 C 372.767 55.341,376.805 56.875,379.897 57.410 C 384.891 58.275,390.742 56.734,394.739 53.500 C 395.497 52.886,397.961 50.325,398.393 49.702 L 398.869 49.014 398.393 48.595 C 397.546 47.849,397.340 47.869,396.598 48.770 C 395.546 50.048,392.988 52.500,392.708 52.500 C 392.654 52.500,392.491 52.605,392.346 52.733 C 391.970 53.066,390.709 53.788,389.833 54.171 C 389.421 54.352,388.967 54.566,388.825 54.647 C 387.007 55.683,381.871 56.065,379.265 55.358 C 378.540 55.161,377.849 55.000,377.729 55.000 C 375.964 55.000,370.736 51.202,369.100 48.731 C 368.743 48.192,368.326 47.563,368.173 47.333 C 366.844 45.337,365.516 40.676,365.502 37.958 C 365.500 37.682,366.433 37.667,382.769 37.667 L 400.038 37.667 399.959 35.375 C 399.849 32.179,399.157 29.467,397.698 26.510 C 397.133 25.368,396.300 23.951,395.989 23.605 C 395.857 23.459,395.450 22.959,395.083 22.492 C 394.328 21.532,391.769 19.333,391.406 19.333 C 391.274 19.333,391.167 19.271,391.167 19.194 C 391.167 18.951,388.058 17.500,387.539 17.500 C 387.367 17.500,386.894 17.391,386.488 17.257 C 385.050 16.783,382.104 16.556,380.250 16.776 M320.750 17.094 C 320.475 17.130,319.500 17.241,318.583 17.340 C 316.070 17.610,312.733 18.573,310.250 19.746 C 309.792 19.962,309.248 20.188,309.042 20.247 C 308.658 20.358,308.525 20.893,308.833 21.083 C 308.925 21.140,309.001 21.313,309.003 21.468 C 309.008 22.022,309.278 22.250,309.697 22.056 C 311.985 20.994,314.470 19.998,314.833 19.997 C 314.971 19.996,315.571 19.839,316.167 19.649 C 319.088 18.712,325.527 18.764,328.333 19.745 C 330.448 20.485,333.165 22.152,333.482 22.905 C 333.518 22.990,333.725 23.224,333.941 23.424 C 334.157 23.624,334.333 23.832,334.333 23.886 C 334.333 23.939,334.546 24.306,334.805 24.700 C 336.038 26.575,336.623 28.997,336.778 32.875 C 336.836 34.319,336.826 35.500,336.756 35.500 C 336.685 35.500,336.281 35.390,335.856 35.256 C 334.393 34.794,331.914 34.194,330.667 33.999 C 329.979 33.891,328.742 33.697,327.917 33.566 C 324.221 32.983,319.472 33.098,316.435 33.844 C 315.712 34.021,315.013 34.167,314.881 34.167 C 314.243 34.167,311.113 35.562,309.835 36.417 C 309.138 36.882,307.701 38.238,306.907 39.177 C 304.617 41.890,304.279 47.596,306.197 51.175 C 307.090 52.840,310.391 55.833,311.336 55.833 C 311.416 55.833,311.754 55.995,312.088 56.192 C 312.422 56.389,312.970 56.606,313.306 56.675 C 313.642 56.743,314.517 56.970,315.250 57.179 C 317.192 57.733,321.875 57.741,324.083 57.193 C 324.908 56.989,325.895 56.753,326.277 56.669 C 326.658 56.584,327.333 56.357,327.777 56.163 C 329.184 55.549,330.747 54.779,330.833 54.658 C 330.879 54.594,331.144 54.401,331.423 54.229 C 333.371 53.026,334.975 51.313,336.475 48.833 L 336.828 48.250 336.831 52.458 L 336.833 56.667 337.756 56.667 L 338.679 56.667 338.627 42.875 C 338.578 30.045,338.553 29.014,338.268 28.083 C 338.099 27.533,337.902 26.821,337.829 26.500 C 336.475 20.515,328.405 16.071,320.750 17.094 M385.418 18.969 C 386.244 19.145,387.271 19.449,387.701 19.644 C 388.130 19.840,388.550 20.000,388.633 20.000 C 389.327 20.000,392.815 22.920,394.008 24.500 C 394.320 24.912,394.614 25.287,394.662 25.333 C 395.307 25.946,397.248 30.538,397.492 32.027 C 397.572 32.516,397.684 33.104,397.740 33.333 C 397.796 33.563,397.902 34.256,397.975 34.875 L 398.107 36.000 381.782 36.000 L 365.457 36.000 365.566 35.323 C 365.625 34.950,365.717 34.182,365.770 33.614 C 365.977 31.390,367.219 28.128,368.772 25.732 C 369.544 24.540,372.033 21.833,372.356 21.833 C 372.422 21.833,372.587 21.723,372.722 21.588 C 373.587 20.722,376.504 19.413,378.503 18.992 C 381.177 18.430,382.857 18.424,385.418 18.969 M325.857 35.168 C 330.021 35.575,332.637 36.127,336.311 37.377 L 336.871 37.568 336.779 40.742 C 336.614 46.362,334.881 49.817,330.902 52.455 C 329.930 53.100,329.821 53.165,329.250 53.445 C 329.067 53.534,328.692 53.726,328.417 53.871 C 323.368 56.532,315.341 56.333,311.011 53.439 C 306.282 50.278,305.519 43.581,309.414 39.412 C 310.336 38.425,312.917 36.667,313.445 36.667 C 313.551 36.667,313.995 36.514,314.430 36.328 C 316.814 35.306,321.937 34.786,325.857 35.168 " stroke="none" fill="#3c3c3c" fill-rule="evenodd"></path><path id="path4" d="M208.667 28.333 L 208.667 56.667 211.750 56.667 L 214.833 56.667 214.833 28.333 L 214.833 0.000 211.750 0.000 L 208.667 0.000 208.667 28.333 M253.793 11.862 L 253.750 23.724 253.066 22.820 C 247.114 14.962,235.226 13.124,227.744 18.906 C 226.461 19.898,225.017 21.197,224.500 21.825 C 224.179 22.215,223.802 22.657,223.661 22.809 C 223.421 23.066,223.168 23.444,222.137 25.083 C 219.201 29.754,218.434 38.109,220.397 44.041 C 225.382 59.103,243.709 62.316,253.147 49.783 L 253.750 48.983 253.795 52.829 L 253.839 56.674 256.878 56.629 L 259.917 56.583 259.959 28.292 L 260.001 0.000 256.918 0.000 L 253.836 0.000 253.793 11.862 M151.750 15.754 C 146.032 16.411,140.320 19.939,137.211 24.733 C 135.255 27.749,134.190 30.808,133.822 34.470 C 132.540 47.196,141.945 57.616,154.667 57.566 C 157.276 57.555,157.759 57.507,159.246 57.110 C 160.161 56.866,161.002 56.667,161.117 56.667 C 161.332 56.667,162.581 56.136,164.167 55.372 C 171.658 51.760,176.321 43.436,175.653 34.869 C 175.495 32.852,174.651 29.113,174.305 28.899 C 174.229 28.852,174.167 28.693,174.167 28.545 C 174.167 27.484,171.705 23.716,169.667 21.656 C 164.955 16.896,158.969 14.924,151.750 15.754 M199.833 15.844 C 196.238 16.221,191.982 18.629,189.643 21.610 C 189.243 22.119,188.830 22.628,188.724 22.740 C 188.448 23.034,187.472 24.612,186.992 25.542 L 186.583 26.335 186.539 21.334 L 186.495 16.333 183.414 16.333 L 180.333 16.333 180.333 36.500 L 180.333 56.667 183.417 56.667 L 186.500 56.667 186.504 48.875 C 186.508 40.597,186.629 38.090,187.155 35.417 C 188.626 27.937,193.650 23.202,200.875 22.486 L 203.000 22.276 203.000 18.971 L 203.000 15.667 202.042 15.690 C 201.515 15.703,200.521 15.772,199.833 15.844 M102.185 16.542 C 102.109 16.748,101.950 17.217,101.832 17.583 C 101.715 17.950,101.442 18.718,101.227 19.291 C 101.012 19.863,100.766 20.613,100.681 20.958 C 100.550 21.490,98.543 27.563,97.996 29.083 C 97.897 29.358,97.109 31.721,96.245 34.333 C 95.380 36.946,94.554 39.421,94.408 39.833 C 94.263 40.246,93.653 42.083,93.054 43.917 C 91.544 48.538,91.689 48.256,91.335 47.250 C 91.174 46.792,90.433 44.542,89.688 42.250 C 86.375 32.053,84.781 27.173,84.433 26.167 C 84.228 25.571,83.891 24.596,83.684 24.000 C 83.478 23.404,83.204 22.542,83.077 22.083 C 82.949 21.625,82.476 20.162,82.025 18.833 L 81.206 16.417 78.067 16.371 C 74.428 16.318,74.436 16.317,74.687 16.952 C 75.039 17.845,76.020 20.601,76.751 22.750 C 77.156 23.942,77.756 25.667,78.084 26.583 C 78.412 27.500,78.746 28.475,78.826 28.750 C 78.976 29.265,79.467 30.665,80.668 34.000 C 81.047 35.054,81.424 36.180,81.504 36.502 C 81.585 36.824,81.781 37.386,81.941 37.752 C 82.101 38.118,82.322 38.717,82.433 39.083 C 82.670 39.868,84.028 43.778,85.009 46.500 C 85.390 47.554,85.762 48.642,85.837 48.917 C 85.912 49.192,86.283 50.279,86.662 51.333 C 87.040 52.387,87.488 53.663,87.658 54.167 C 87.828 54.671,88.119 55.496,88.304 56.000 L 88.641 56.917 91.382 56.962 L 94.123 57.008 94.304 56.546 C 94.404 56.291,94.750 55.296,95.073 54.333 C 95.396 53.371,96.118 51.271,96.677 49.667 C 97.237 48.063,97.795 46.413,97.918 46.000 C 98.169 45.160,98.711 43.585,99.266 42.083 C 99.470 41.533,99.879 40.333,100.175 39.417 C 100.472 38.500,100.807 37.525,100.921 37.250 C 101.035 36.975,101.223 36.450,101.339 36.083 C 101.560 35.388,102.093 33.849,102.753 32.000 C 102.966 31.404,103.190 30.729,103.250 30.500 C 103.310 30.271,103.536 29.596,103.750 29.000 C 103.965 28.404,104.306 27.445,104.509 26.870 C 104.911 25.728,104.960 25.703,105.171 26.528 C 105.249 26.834,105.808 28.508,106.413 30.250 C 107.019 31.992,107.580 33.642,107.660 33.917 C 107.741 34.192,108.154 35.392,108.579 36.583 C 109.003 37.775,109.418 39.013,109.500 39.335 C 109.583 39.657,109.776 40.220,109.929 40.585 C 110.081 40.951,110.302 41.587,110.418 42.000 C 110.535 42.412,110.943 43.612,111.326 44.667 C 111.708 45.721,112.084 46.808,112.160 47.083 C 112.236 47.358,112.427 47.921,112.583 48.333 C 112.740 48.746,112.928 49.308,113.000 49.583 C 113.073 49.858,113.446 50.946,113.830 52.000 C 114.213 53.054,114.584 54.142,114.655 54.417 C 114.725 54.692,114.954 55.385,115.163 55.958 L 115.545 57.000 118.250 57.000 L 120.955 57.000 121.318 55.958 C 121.518 55.385,121.865 54.427,122.091 53.829 C 122.316 53.231,122.500 52.670,122.500 52.583 C 122.500 52.496,122.678 51.936,122.895 51.337 C 123.113 50.739,123.381 49.987,123.492 49.667 C 123.603 49.346,123.993 48.258,124.359 47.250 C 124.725 46.242,125.087 45.192,125.165 44.917 C 125.242 44.642,125.581 43.667,125.919 42.750 C 126.256 41.833,126.668 40.671,126.834 40.167 C 127.000 39.662,127.562 38.050,128.083 36.583 C 129.514 32.556,129.998 31.158,130.243 30.333 C 130.365 29.921,130.620 29.194,130.810 28.718 C 130.999 28.242,131.417 27.079,131.737 26.135 C 132.289 24.507,133.170 22.009,134.106 19.417 C 134.708 17.749,135.000 16.814,135.000 16.557 C 135.000 16.378,134.373 16.333,131.848 16.333 L 128.696 16.333 128.283 17.458 C 128.057 18.077,127.477 19.821,126.995 21.333 C 126.513 22.846,125.908 24.683,125.650 25.417 C 125.076 27.051,122.848 33.894,122.665 34.583 C 122.592 34.858,122.347 35.608,122.120 36.250 C 121.892 36.892,121.124 39.217,120.411 41.417 C 118.715 46.651,118.283 47.853,118.150 47.705 C 118.021 47.562,116.722 43.922,116.411 42.833 C 116.294 42.421,116.051 41.671,115.871 41.167 C 115.116 39.049,114.945 38.546,114.737 37.833 C 114.617 37.421,113.985 35.546,113.334 33.667 C 112.682 31.787,112.080 29.988,111.995 29.667 C 111.910 29.346,111.533 28.221,111.157 27.167 C 110.781 26.113,110.414 25.014,110.342 24.725 C 110.269 24.437,110.022 23.687,109.792 23.059 C 109.109 21.187,108.802 20.292,108.573 19.500 C 108.453 19.087,108.152 18.169,107.903 17.458 L 107.451 16.167 104.888 16.167 C 102.383 16.167,102.322 16.175,102.185 16.542 M158.327 21.588 C 159.690 21.971,160.625 22.382,162.641 23.484 C 164.616 24.563,167.515 28.516,168.472 31.434 C 170.363 37.204,168.919 43.737,164.850 47.818 C 164.245 48.425,163.533 49.070,163.267 49.252 C 162.559 49.738,161.288 50.496,161.000 50.605 C 160.862 50.657,160.300 50.877,159.750 51.093 C 154.807 53.034,148.607 51.697,144.726 47.853 C 139.476 42.651,138.590 34.566,142.513 27.667 C 145.390 22.608,152.389 19.917,158.327 21.588 M242.667 21.548 C 244.073 21.871,244.758 22.158,247.250 23.469 C 247.851 23.785,251.017 26.917,251.349 27.524 C 254.364 33.040,254.758 38.266,252.534 43.250 C 252.091 44.242,252.002 44.399,251.068 45.821 C 246.501 52.776,236.291 53.885,230.289 48.079 C 224.922 42.887,224.071 33.364,228.398 26.917 C 229.062 25.926,231.428 23.500,231.729 23.500 C 231.815 23.500,232.131 23.313,232.431 23.083 C 232.732 22.854,233.034 22.667,233.103 22.667 C 233.172 22.667,233.538 22.516,233.917 22.333 C 236.428 21.118,239.570 20.835,242.667 21.548 M65.250 23.192 C 59.235 25.519,50.813 30.770,44.614 36.059 L 43.644 36.886 44.780 38.038 C 48.956 42.275,55.053 46.392,60.036 48.341 C 64.322 50.018,65.243 50.245,65.503 49.689 C 65.897 48.844,66.865 46.414,66.923 46.120 C 66.956 45.957,67.183 45.170,67.427 44.370 C 67.672 43.571,67.873 42.747,67.874 42.539 C 67.874 42.331,67.944 42.118,68.028 42.066 C 68.112 42.014,68.135 41.828,68.079 41.653 C 68.023 41.477,68.044 41.333,68.125 41.333 C 68.625 41.333,68.851 33.801,68.414 31.706 C 68.275 31.041,68.208 30.309,68.265 30.081 C 68.334 29.810,68.299 29.667,68.167 29.667 C 68.055 29.667,68.006 29.557,68.058 29.423 C 68.109 29.289,67.972 28.562,67.752 27.808 C 67.533 27.053,67.391 26.375,67.437 26.301 C 67.482 26.227,67.439 26.167,67.340 26.167 C 67.239 26.167,67.193 25.984,67.236 25.750 C 67.277 25.521,67.256 25.333,67.189 25.333 C 67.032 25.333,66.418 23.687,66.417 23.265 C 66.416 22.829,66.220 22.817,65.250 23.192 " stroke="none" fill="#943c84" fill-rule="evenodd"></path><path id="path5" d="M31.649 1.266 C 31.192 1.407,31.004 5.903,31.323 9.083 C 31.406 9.908,31.521 11.108,31.580 11.750 C 32.267 19.281,37.084 29.935,42.463 35.826 L 43.446 36.902 45.431 35.241 C 50.237 31.222,54.175 28.612,60.500 25.257 C 61.395 24.782,65.800 22.833,65.978 22.833 C 66.384 22.833,65.207 20.153,63.856 18.000 C 63.482 17.404,63.053 16.673,62.902 16.375 C 62.752 16.077,62.567 15.833,62.492 15.833 C 62.417 15.833,62.314 15.702,62.263 15.542 C 62.212 15.381,62.001 15.063,61.794 14.833 C 61.586 14.604,61.194 14.117,60.921 13.750 C 58.965 11.117,54.520 7.444,50.917 5.483 C 45.689 2.637,40.896 1.368,34.917 1.245 C 33.267 1.212,31.796 1.221,31.649 1.266 " stroke="none" fill="#8c8bb3" fill-rule="evenodd"></path><path id="path6" d="M10.667 10.647 C 10.667 10.749,10.552 10.833,10.411 10.833 C 10.271 10.833,10.108 10.965,10.049 11.125 C 9.990 11.285,9.841 11.478,9.717 11.552 C 9.594 11.626,9.538 11.759,9.592 11.848 C 9.647 11.936,9.592 11.988,9.471 11.962 C 9.349 11.937,9.271 12.016,9.296 12.137 C 9.321 12.259,9.271 12.314,9.185 12.261 C 8.974 12.131,7.443 13.939,7.578 14.158 C 7.643 14.263,7.575 14.288,7.403 14.222 C 7.209 14.147,7.145 14.185,7.198 14.343 C 7.240 14.469,7.063 14.749,6.806 14.965 C 6.340 15.358,4.264 18.536,4.328 18.761 C 4.347 18.826,4.290 18.925,4.202 18.981 C 3.922 19.160,2.877 21.407,2.962 21.648 C 3.012 21.789,2.970 21.834,2.855 21.763 C 2.751 21.699,2.667 21.736,2.667 21.844 C 2.667 21.953,2.489 22.464,2.272 22.979 C 1.436 24.962,0.980 26.551,1.205 26.694 C 1.371 26.799,1.372 26.829,1.208 26.831 C 1.094 26.832,1.012 26.890,1.026 26.958 C 1.041 27.027,1.008 27.196,0.952 27.333 C 0.743 27.852,0.554 28.763,0.581 29.117 C 0.597 29.319,0.548 29.446,0.472 29.399 C 0.396 29.352,0.333 29.473,0.333 29.667 C 0.333 29.894,0.407 29.982,0.542 29.914 C 0.656 29.856,0.610 29.922,0.440 30.061 C 0.207 30.251,0.146 30.479,0.193 30.976 C 0.228 31.341,0.199 31.603,0.128 31.559 C 0.058 31.516,0.000 31.602,-0.000 31.750 C -0.000 31.898,0.075 31.973,0.167 31.917 C 0.258 31.860,0.333 31.893,0.333 31.990 C 0.333 32.087,0.265 32.167,0.182 32.167 C 0.095 32.167,0.037 33.786,0.046 35.958 C 0.055 38.044,0.121 39.563,0.192 39.333 C 0.292 39.013,0.313 39.080,0.282 39.625 C 0.259 40.015,0.308 40.333,0.390 40.333 C 0.472 40.333,0.503 40.521,0.459 40.750 C 0.415 40.979,0.453 41.167,0.543 41.167 C 0.632 41.167,0.670 41.354,0.626 41.583 C 0.582 41.813,0.606 42.000,0.679 42.000 C 0.751 42.000,0.810 42.206,0.808 42.458 C 0.806 42.710,1.007 43.554,1.253 44.333 C 1.500 45.112,1.726 45.900,1.754 46.083 C 1.830 46.576,1.826 46.564,1.990 46.823 C 2.385 47.447,8.894 40.893,12.987 35.750 C 14.533 33.808,18.500 28.181,18.500 27.931 C 18.500 27.891,18.875 27.247,19.333 26.500 C 19.792 25.753,20.167 25.105,20.167 25.059 C 20.167 25.013,20.579 24.258,21.083 23.380 C 21.587 22.502,22.002 21.701,22.005 21.600 C 22.008 21.499,22.121 21.271,22.255 21.093 C 22.390 20.915,22.500 20.670,22.500 20.549 C 22.500 20.126,16.906 14.863,15.096 13.583 C 14.837 13.400,14.428 13.096,14.187 12.909 C 13.434 12.321,12.004 11.333,11.905 11.333 C 11.853 11.333,11.554 11.137,11.239 10.897 C 10.924 10.657,10.667 10.544,10.667 10.647 M46.326 39.708 C 47.017 40.444,47.167 40.577,47.167 40.451 C 47.167 40.425,46.810 40.068,46.375 39.660 L 45.583 38.917 46.326 39.708 " stroke="none" fill="#7c849c" fill-rule="evenodd"></path><path id="path7" d="M66.339 23.356 C 66.336 23.414,66.443 23.714,66.577 24.023 C 66.711 24.331,66.821 24.471,66.821 24.333 C 66.821 24.093,66.351 23.139,66.339 23.356 M67.035 45.625 C 66.867 46.186,66.873 46.217,67.091 45.926 C 67.302 45.644,67.433 45.000,67.278 45.000 C 67.248 45.000,67.138 45.281,67.035 45.625 M66.185 48.019 C 66.083 48.313,66.026 48.582,66.060 48.616 C 66.094 48.650,66.217 48.448,66.333 48.167 C 66.450 47.886,66.506 47.617,66.458 47.569 C 66.411 47.522,66.288 47.724,66.185 48.019 " stroke="none" fill="#945484" fill-rule="evenodd"></path><path id="path8" d="" stroke="none" fill="#a44488" fill-rule="evenodd"></path></g></svg>