<?xml version="1.0" encoding="UTF-8"?>
<svg width="450px" height="111px" viewBox="0 0 450 111" version="1.1" xmlns="http://www.w3.org/2000/svg" xmlns:xlink="http://www.w3.org/1999/xlink">
    <!-- Generator: Sketch 51.3 (57544) - http://www.bohemiancoding.com/sketch -->
    <title>Group</title>
    <desc>Created with Sketch.</desc>
    <defs></defs>
    <g id="Page-1" stroke="none" stroke-width="1" fill="none" fill-rule="evenodd">
        <g id="Artboard-2" transform="translate(-25.000000, -195.000000)" fill="#FFFFFF">
            <g id="Group" transform="translate(25.000000, 195.000000)">
                <path d="M51.5349028,37.4867963 C47.1822927,36.9064483 46.6599795,36.3261003 46.5439099,32.2056295 L46.5439099,7.1345957 C46.6599795,2.95609007 47.4724667,2.08556807 51.5349028,1.85342886 L51.5349028,0.460593654 L37.2003071,0.460593654 L25.8254862,27.2726714 L14.5087001,0.460593654 L0.116069601,0.460593654 L0.116069601,1.85342886 C4.17850563,2.20163767 5.10706244,2.95609007 5.16509724,5.91586489 L5.16509724,32.9020471 C5.10706244,36.3261003 4.35261003,37.0225179 0,37.4867963 L0,38.8796315 L13.2899693,38.8796315 L13.2899693,37.4867963 C8.70522006,37.1385875 7.60255885,36.0359263 7.54452405,31.8574207 L7.54452405,5.16141249 L21.8791198,38.8796315 L23.3880246,38.8796315 L37.7226203,4.29089048 L37.7226203,33.1922211 C37.6065507,36.4421699 36.8520983,37.1385875 32.6735926,37.4867963 L32.6735926,38.8796315 L51.5349028,38.8796315 L51.5349028,37.4867963 Z M71.0594678,37.8184237 C67.8316274,37.6415558 66.9915046,36.9783009 66.9472876,34.7232344 L66.9472876,13.7643808 C66.9915046,11.4650972 67.9200614,10.7576254 71.0594678,10.6691914 L71.0594678,9.60798362 L55.8930399,9.60798362 L55.8930399,10.6691914 C58.9440123,10.8460594 59.8283521,11.5093142 59.9167861,13.7643808 L59.9167861,34.7232344 C59.8725691,36.9340839 59.0324463,37.5531218 55.8930399,37.8184237 L55.8930399,38.8796315 L71.0594678,38.8796315 L71.0594678,37.8184237 Z M101.314944,29.0634596 L100.076868,29.0634596 C98.6177073,32.4239509 97.7775844,33.7946776 96.2742068,35.1654043 C94.5055271,36.801433 92.0735926,37.5531218 88.6688843,37.5531218 C86.0600819,37.5531218 85.264176,36.9783009 85.264176,35.1211873 L85.264176,14.6929376 C85.35261,11.3324463 85.9716479,10.8018424 89.6416581,10.6691914 L89.6416581,9.60798362 L74.5194473,9.60798362 L74.5194473,10.6691914 C77.3493347,10.8460594 78.1894575,11.5093142 78.2336745,13.7643808 L78.2336745,34.7232344 C78.1894575,36.9783009 77.5704197,37.4646878 74.5194473,37.8184237 L74.5194473,38.8796315 L99.5462641,38.8796315 L101.314944,29.0634596 Z M132.189458,29.0634596 L130.951382,29.0634596 C129.492221,32.4239509 128.652098,33.7946776 127.148721,35.1654043 C125.380041,36.801433 122.948106,37.5531218 119.543398,37.5531218 C116.934596,37.5531218 116.13869,36.9783009 116.13869,35.1211873 L116.13869,14.6929376 C116.227124,11.3324463 116.846162,10.8018424 120.516172,10.6691914 L120.516172,9.60798362 L105.393961,9.60798362 L105.393961,10.6691914 C108.223849,10.8460594 109.063971,11.5093142 109.108188,13.7643808 L109.108188,34.7232344 C109.063971,36.9783009 108.444933,37.4646878 105.393961,37.8184237 L105.393961,38.8796315 L130.420778,38.8796315 L132.189458,29.0634596 Z M156.519857,18.3184498 L156.519857,8.90051177 L155.237564,8.90051177 C154.883828,10.0501192 154.618526,10.3596289 153.82262,10.3596289 C153.424667,10.3596289 152.93828,10.2269819 152.009724,9.91747222 C150.019959,9.21002147 148.649232,8.94472744 146.92477,8.94472744 C141.04391,8.94472744 137.462334,12.3051185 137.462334,17.7878618 C137.462334,21.5461938 139.7174,24.2875655 144.846571,26.7636431 L147.764893,28.1343289 C151.523337,29.9029558 152.584545,31.0967789 152.584545,33.3959938 C152.584545,36.3584438 150.462129,38.3039334 147.145855,38.3039334 C144.581269,38.3039334 142.458854,37.1985416 140.867042,35.0761893 C139.628966,33.4844252 139.054145,32.025308 138.302456,29.0186423 L137.064381,29.0186423 L137.064381,39.7188348 L138.302456,39.7188348 C138.611975,38.5692274 138.921494,38.215502 139.628966,38.215502 C139.982702,38.215502 140.469089,38.348149 141.397646,38.6576587 C143.475844,39.4093251 145.111873,39.7188348 147.013204,39.7188348 C153.424667,39.7188348 157.757932,36.0489341 157.757932,30.5661908 C157.757932,27.3384468 155.812385,24.0664871 153.026714,22.6958013 L146.659468,19.5122729 C143.166325,17.7878618 142.193552,16.7266856 142.193552,14.6043334 C142.193552,11.9071774 144.006448,10.2711976 146.92477,10.2711976 C148.914534,10.2711976 150.727431,11.1112953 152.275026,12.7030595 C153.734186,14.2063924 154.397441,15.4886468 155.325998,18.3184498 L156.519857,18.3184498 Z" id="Mills"></path>
                <path d="M277.764688,37.2970317 C273.412078,36.7166837 272.889765,36.1363357 272.773695,32.0158649 L272.773695,6.94483112 C272.889765,2.76632549 273.702252,1.89580348 277.764688,1.66366428 L277.764688,0.270829069 L263.430092,0.270829069 L252.055271,27.0829069 L240.738485,0.270829069 L226.345855,0.270829069 L226.345855,1.66366428 C230.408291,2.01187308 231.336847,2.76632549 231.394882,5.72610031 L231.394882,32.7122825 C231.336847,36.1363357 230.582395,36.8327533 226.229785,37.2970317 L226.229785,38.6898669 L239.519754,38.6898669 L239.519754,37.2970317 C234.935005,36.9488229 233.832344,35.8461617 233.774309,31.6676561 L233.774309,4.9716479 L248.108905,38.6898669 L249.61781,38.6898669 L263.952405,4.1011259 L263.952405,33.0024565 C263.836336,36.2524053 263.081883,36.9488229 258.903378,37.2970317 L258.903378,38.6898669 L277.764688,38.6898669 L277.764688,37.2970317 Z M297.289253,37.6286592 C294.061412,37.4517912 293.22129,36.7885363 293.177073,34.5334698 L293.177073,13.5746162 C293.22129,11.2753327 294.149846,10.5678608 297.289253,10.4794268 L297.289253,9.41821904 L282.122825,9.41821904 L282.122825,10.4794268 C285.173797,10.6562948 286.058137,11.3195496 286.146571,13.5746162 L286.146571,34.5334698 C286.102354,36.7443193 285.262231,37.3633572 282.122825,37.6286592 L282.122825,38.6898669 L297.289253,38.6898669 L297.289253,37.6286592 Z M327.544729,28.873695 L326.306653,28.873695 C324.847492,32.2341863 324.007369,33.604913 322.503992,34.9756397 C320.735312,36.6116684 318.303378,37.3633572 314.898669,37.3633572 C312.289867,37.3633572 311.493961,36.7885363 311.493961,34.9314227 L311.493961,14.503173 C311.582395,11.1426817 312.201433,10.6120778 315.871443,10.4794268 L315.871443,9.41821904 L300.749232,9.41821904 L300.749232,10.4794268 C303.57912,10.6562948 304.419243,11.3195496 304.46346,13.5746162 L304.46346,34.5334698 C304.419243,36.7885363 303.800205,37.2749232 300.749232,37.6286592 L300.749232,38.6898669 L325.776049,38.6898669 L327.544729,28.873695 Z M358.419243,28.873695 L357.181167,28.873695 C355.722006,32.2341863 354.881883,33.604913 353.378506,34.9756397 C351.609826,36.6116684 349.177892,37.3633572 345.773183,37.3633572 C343.164381,37.3633572 342.368475,36.7885363 342.368475,34.9314227 L342.368475,14.503173 C342.456909,11.1426817 343.075947,10.6120778 346.745957,10.4794268 L346.745957,9.41821904 L331.623746,9.41821904 L331.623746,10.4794268 C334.453634,10.6562948 335.293756,11.3195496 335.337973,13.5746162 L335.337973,34.5334698 C335.293756,36.7885363 334.674719,37.2749232 331.623746,37.6286592 L331.623746,38.6898669 L356.650563,38.6898669 L358.419243,28.873695 Z M382.616991,18.1289662 L382.616991,8.71074719 L381.334698,8.71074719 C380.980962,9.86038895 380.71566,10.1699079 379.919754,10.1699079 C379.521801,10.1699079 379.035415,10.0372569 378.106858,9.72773797 C376.117093,9.02026612 374.746366,8.75496418 373.021904,8.75496418 C367.141044,8.75496418 363.559468,12.1154555 363.559468,17.5983623 C363.559468,21.3568066 365.814534,24.09826 370.943705,26.5744115 L373.862027,27.9451382 C377.620471,29.7138178 378.681679,30.9076766 378.681679,33.2069601 C378.681679,36.1694985 376.559263,38.1150461 373.242989,38.1150461 C370.678403,38.1150461 368.555988,37.0096213 366.964176,34.8872057 C365.7261,33.2953941 365.151279,31.8362334 364.399591,28.829478 L363.161515,28.829478 L363.161515,39.5299898 L364.399591,39.5299898 C364.70911,38.380348 365.018628,38.0266121 365.7261,38.0266121 C366.079836,38.0266121 366.566223,38.1592631 367.49478,38.468782 C369.572979,39.2204708 371.209007,39.5299898 373.110338,39.5299898 C379.521801,39.5299898 383.855067,35.8599795 383.855067,30.3770727 C383.855067,27.1492323 381.909519,23.877175 379.123849,22.5064483 L372.756602,19.322825 C369.26346,17.5983623 368.290686,16.5371546 368.290686,14.414739 C368.290686,11.7175026 370.103582,10.0814739 373.021904,10.0814739 C375.011668,10.0814739 376.824565,10.9215967 378.37216,12.5134084 C379.83132,14.0167861 380.494575,15.2990788 381.423132,18.1289662 L382.616991,18.1289662 Z" id="Mills"></path>
                <path d="M208.985862,33.514881 L208.084986,33.0330173 C207.679939,33.7313739 207.232998,34.3075095 206.744148,34.7614413 C206.255299,35.2153731 205.654721,35.4423356 204.942397,35.4423356 C204.523383,35.4423356 204.107867,35.372501 203.695837,35.2328296 C203.283807,35.0931583 202.84734,34.876671 202.386425,34.5833612 C201.92551,34.2900515 201.426192,33.919928 200.888457,33.4729798 C200.350723,33.0260316 199.746653,32.4952885 199.076231,31.8807347 C200.067897,30.6935284 200.898929,29.597125 201.569352,28.5914915 C202.239774,27.585858 202.826385,26.6500742 203.329202,25.784112 C203.748216,25.0717882 204.114847,24.4712105 204.429108,23.9823609 C204.743368,23.4935113 205.068099,23.0919623 205.40331,22.7777018 C205.738522,22.4634413 206.108645,22.2294954 206.513692,22.0758569 C206.918739,21.9222185 207.414564,21.8174665 208.001184,21.761598 L208.001184,20.9026237 L198.908626,20.9026237 L198.908626,21.761598 C199.662851,21.8733351 200.249462,22.1317231 200.668476,22.53677 C201.08749,22.9418168 201.296994,23.5004937 201.296994,24.2128175 C201.296994,24.7016671 201.206209,25.2184432 201.024636,25.7631614 C200.843064,26.3078795 200.598642,26.859573 200.291366,27.4182583 C199.984089,27.9769435 199.62444,28.5356205 199.21241,29.0943057 C198.80038,29.652991 198.370897,30.1837341 197.923948,30.6865508 C197.253526,29.9323257 196.618031,29.1885871 196.017444,28.4553126 C195.416858,27.7220382 194.83723,26.9817913 194.278545,26.2345497 C193.71986,25.4873082 193.178642,24.7156357 192.654874,23.9195091 C192.131107,23.1233826 191.610839,22.2853672 191.094055,21.4054379 C191.904149,21.0702267 192.756131,20.6861364 193.650027,20.2531553 C194.543924,19.8201742 195.357497,19.3068898 196.090772,18.7132866 C196.824046,18.1196835 197.431607,17.4283209 197.913473,16.6391779 C198.395339,15.8500349 198.636269,14.9386932 198.636269,13.9051254 C198.636269,13.1928017 198.486124,12.5258811 198.185831,11.9043438 C197.885538,11.2828064 197.452563,10.7380964 196.886894,10.2701975 C196.321225,9.80229853 195.633354,9.43217508 194.823261,9.159816 C194.013167,8.88745692 193.098334,8.75127943 192.078733,8.75127943 C190.905494,8.75127943 189.812582,8.93634115 188.799965,9.30647016 C187.787348,9.67659916 186.907432,10.2038505 186.16019,10.88824 C185.412949,11.5726294 184.826338,12.3896944 184.40034,13.3394594 C183.974343,14.2892244 183.761347,15.3507105 183.761347,16.5239496 C183.761347,17.2502405 183.820707,17.9416032 183.939427,18.5980584 C184.058148,19.2545136 184.190834,19.8376326 184.337489,20.3474329 C184.484143,20.8572333 184.627304,21.2797327 184.766976,21.6149439 C184.906647,21.950155 184.997432,22.1666423 185.039333,22.2644123 C184.368911,22.557722 183.677548,22.882453 182.965225,23.2386149 C182.252901,23.5947767 181.561538,23.9963257 180.891116,24.443274 C180.220694,24.8902222 179.585199,25.3790645 178.984612,25.9098155 C178.384025,26.4405665 177.860266,27.0271773 177.413317,27.6696654 C176.966369,28.3121535 176.610213,29.0174831 176.344837,29.7856753 C176.079462,30.5538676 175.946776,31.3848995 175.946776,32.278796 C175.946776,33.2983966 176.145804,34.2516391 176.543868,35.138552 C176.941931,36.0254649 177.518067,36.7971373 178.272292,37.4535926 C179.026517,38.1100478 179.944842,38.6268239 181.027295,39.0039365 C182.109748,39.381049 183.335345,39.5696025 184.704124,39.5696025 C185.79356,39.5696025 186.813146,39.4578671 187.762911,39.234393 C188.712676,39.0109189 189.599575,38.724597 190.423636,38.3754187 C191.247697,38.0262404 192.008894,37.6351665 192.707251,37.2021854 C193.405607,36.7692043 194.041102,36.3432132 194.613755,35.9241992 C195.102604,36.3990817 195.605414,36.8564984 196.122197,37.2964631 C196.638981,37.7364278 197.183691,38.1240099 197.756344,38.459221 C198.328996,38.7944322 198.947032,39.0632955 199.610471,39.2658189 C200.27391,39.4683423 200.996698,39.5696025 201.778858,39.5696025 C202.854327,39.5696025 203.786619,39.3496235 204.575762,38.9096588 C205.364905,38.4696941 206.045792,37.9354594 206.618445,37.3069384 C207.191097,36.6784175 207.665973,36.0184804 208.043085,35.3271073 C208.420198,34.6357343 208.734453,34.0316649 208.985862,33.514881 Z M194.57182,15.3077004 C194.569242,16.0811875 194.415616,16.7345128 194.11094,17.2676957 C193.803664,17.8054303 193.43354,18.2593553 193.000559,18.6294843 C192.567578,18.9996133 192.106669,19.2964104 191.61782,19.5198845 C191.12897,19.7433586 190.709962,19.9319121 190.360784,20.0855505 C190.23508,19.8341421 190.060493,19.460527 189.837019,18.9646938 C189.613545,18.4688606 189.397058,17.9241506 189.187551,17.3305475 C188.978044,16.7369444 188.792982,16.1223998 188.63236,15.4868952 C188.471738,14.8513907 188.391428,14.2682717 188.391428,13.7375207 C188.391428,13.3604081 188.443804,12.9798095 188.548558,12.5957133 C188.653311,12.2116172 188.820914,11.8624441 189.051372,11.5481837 C189.28183,11.2339232 189.575135,10.9755351 189.931297,10.7730117 C190.287459,10.5704883 190.716942,10.4692281 191.219759,10.4692281 C191.722575,10.4692281 192.179992,10.6054056 192.592022,10.8777647 C193.004053,11.1501237 193.356718,11.5132637 193.650027,11.9671955 C193.943337,12.4211273 194.1703,12.9379035 194.330922,13.5175395 C194.489663,14.0903893 194.569962,14.6871037 194.57182,15.3077004 L194.57182,15.3077004 Z M193.314818,34.5833612 C193.217048,34.6531969 193.014528,34.7893744 192.707251,34.9918978 C192.399974,35.1944212 192.02985,35.4004333 191.596869,35.6099403 C191.163888,35.8194473 190.685521,36.0080008 190.161754,36.1756064 C189.637986,36.3432119 189.117718,36.4270135 188.600934,36.4270135 C187.748939,36.4270135 186.914416,36.2105262 186.097338,35.7775451 C185.280261,35.344564 184.546998,34.7719201 183.897526,34.0595964 C183.248054,33.3472727 182.724295,32.5302077 182.326232,31.608377 C181.928168,30.6865462 181.72914,29.7367955 181.72914,28.7590962 C181.72914,28.0886739 181.837383,27.4880962 182.053874,26.9573452 C182.270364,26.4265942 182.56367,25.9552105 182.933799,25.5431801 C183.303928,25.1311497 183.722935,24.7715015 184.190834,24.4642246 C184.658733,24.1569477 185.144084,23.8985596 185.646901,23.6890526 C186.079882,24.5689819 186.54079,25.4349311 187.02964,26.2869262 C187.518489,27.1389213 188.042249,27.9769366 188.600934,28.8009974 C189.857976,30.6865603 191.429255,32.6139956 193.314818,34.5833612 Z" id="&amp;"></path>
                <path d="M418.633572,33.5772774 L417.988741,33.5772774 C417.228761,35.3275333 416.791197,36.0414534 416.008188,36.7553736 C415.087001,37.6074719 413.820368,37.9989765 412.047083,37.9989765 C410.688332,37.9989765 410.273797,37.6995906 410.273797,36.7323439 L410.273797,26.0926305 C410.319857,24.3423746 410.642272,24.0660184 412.553736,23.9969294 L412.553736,23.444217 L404.677584,23.444217 L404.677584,23.9969294 C406.151484,24.0890481 406.589048,24.4344933 406.612078,25.6090072 L406.612078,36.5250768 C406.589048,37.6995906 406.266633,37.9529171 404.677584,38.1371546 L404.677584,38.6898669 L417.712385,38.6898669 L418.633572,33.5772774 Z M434.547083,33.5772774 L433.902252,33.5772774 C433.142272,35.3275333 432.704708,36.0414534 431.921699,36.7553736 C431.000512,37.6074719 429.733879,37.9989765 427.960594,37.9989765 C426.601842,37.9989765 426.187308,37.6995906 426.187308,36.7323439 L426.187308,26.0926305 C426.233367,24.3423746 426.555783,24.0660184 428.467247,23.9969294 L428.467247,23.444217 L420.591095,23.444217 L420.591095,23.9969294 C422.064995,24.0890481 422.502559,24.4344933 422.525589,25.6090072 L422.525589,36.5250768 C422.502559,37.6995906 422.180143,37.9529171 420.591095,38.1371546 L420.591095,38.6898669 L433.625896,38.6898669 L434.547083,33.5772774 Z M436.435517,38.6898669 L443.966223,38.6898669 L443.966223,38.1371546 C442.215967,37.9298874 442.03173,37.7226203 441.98567,36.0414534 L441.98567,31.8500512 C445.048618,31.8270215 445.808598,31.7579324 446.798874,31.3664278 C448.618219,30.6525077 449.608495,29.2937564 449.608495,27.5204708 C449.608495,24.9181167 447.489765,23.444217 443.689867,23.444217 L436.435517,23.444217 L436.435517,23.9969294 C437.978506,24.1120778 438.277892,24.457523 438.323951,26.0696008 L438.323951,36.0414534 C438.300921,37.4462641 437.978506,37.9298874 436.9652,38.0450358 C436.896111,38.0450358 436.665814,38.0910952 436.435517,38.1371546 L436.435517,38.6898669 Z M441.98567,25.0102354 C441.98567,24.4805527 442.354145,24.2272262 443.114125,24.2272262 C444.979529,24.2272262 445.739509,25.2175026 445.739509,27.6356192 C445.739509,29.0864893 445.486182,29.9385875 444.864381,30.4452405 C444.334698,30.9058342 443.597748,31.067042 441.98567,31.067042 L441.98567,25.0102354 Z" id="LLP"></path>
                <path d="M53.8433982,63.6908905 C55.3909928,63.7830092 55.593654,63.9672467 55.6120778,65.3490276 L55.6120778,73.5291709 C55.593654,74.9109519 55.3541453,75.1320368 53.8433982,75.1873081 L53.8433982,75.5373593 L59.9969294,75.5373593 C61.4155578,75.5373593 62.7420676,75.1504606 63.4237462,74.5240532 C64.087001,73.9344933 64.4554759,73.1054248 64.4554759,72.221085 C64.4554759,71.4104401 64.1422723,70.6734903 63.5527124,70.1392016 C63,69.6417605 62.5025589,69.4206755 61.3050154,69.1258956 C62.2630502,68.8863869 62.6499488,68.7021494 63.0921187,68.3152508 C63.5527124,67.9099284 63.8290686,67.2466735 63.8290686,66.4728762 C63.8290686,64.4094166 62.1709314,63.3408393 59.0020471,63.3408393 L53.8433982,63.3408393 L53.8433982,63.6908905 Z M57.4912999,69.531218 C59.2784033,69.531218 60.1258956,69.6417605 60.7891505,69.9181167 C61.839304,70.3418628 62.3367451,71.0972364 62.3367451,72.2395087 C62.3367451,73.234391 61.9498465,73.9529171 61.2128966,74.3766633 C60.6233367,74.7082907 59.8679632,74.8556807 58.6519959,74.8556807 C57.7492323,74.8556807 57.4912999,74.6898669 57.4912999,74.1003071 L57.4912999,69.531218 Z M57.4912999,68.8126919 L57.4912999,64.5752303 C57.5097236,64.1699079 57.5834186,64.0593654 57.8966223,64.0409417 L58.7072671,64.0225179 C60.752303,63.9672467 61.9498465,64.9068577 61.9498465,66.5465711 C61.9498465,68.0020471 61.0102354,68.7758444 59.2415558,68.7942682 L57.4912999,68.8126919 Z M79.8254862,75.1873081 C78.9964176,75.1320368 78.8121801,74.9477994 78.167349,73.5844422 L73.5798362,63.1197544 L73.2113613,63.1197544 L69.3792221,72.1658137 C68.2001024,74.8556807 67.9790174,75.1504606 67.0946776,75.1873081 L67.0946776,75.5373593 L70.7425793,75.5373593 L70.7425793,75.1873081 C69.8582395,75.1873081 69.4897646,74.9662231 69.4897646,74.4319345 C69.4897646,74.2108495 69.5450358,73.9529171 69.6371546,73.7134084 L70.4846469,71.5578301 L75.3116684,71.5578301 L76.067042,73.3265097 C76.2881269,73.8239509 76.4170931,74.3029683 76.4170931,74.5609007 C76.4170931,75.0214944 76.1038895,75.1688843 75.1274309,75.1873081 L75.1274309,75.5373593 L79.8254862,75.5373593 L79.8254862,75.1873081 Z M70.7978506,70.8024565 L72.9165814,65.7359263 L75.0537359,70.8024565 L70.7978506,70.8024565 Z M94.2190379,75.1873081 C93.5189355,75.1320368 93.1504606,74.9477994 92.616172,74.321392 L88.8208802,69.6601842 C91.160696,69.1995906 92.1555783,68.2784033 92.1555783,66.5834186 C92.1555783,65.7911975 91.9160696,65.1095189 91.4370522,64.5752303 C90.7369498,63.8198567 89.2077789,63.3408393 87.4759468,63.3408393 L82.3909928,63.3408393 L82.3909928,63.6908905 C83.7543501,63.8382805 83.9385875,64.0040942 83.9570113,65.3490276 L83.9570113,73.3265097 C83.9385875,74.8925281 83.7727738,75.0767656 82.3909928,75.1873081 L82.3909928,75.5373593 L87.4943705,75.5373593 L87.4943705,75.1873081 C86.0757421,75.0951894 85.8546571,74.8741044 85.8362334,73.5291709 L85.8362334,69.8996929 L86.8679632,69.8628454 L91.2528147,75.5373593 L94.2190379,75.5373593 L94.2190379,75.1873081 Z M85.8362334,64.6857728 C85.8362334,64.1699079 86.0388946,64.0225179 86.7758444,64.0225179 C89.0788127,64.0225179 90.14739,64.814739 90.14739,66.5465711 C90.14739,67.4677584 89.7604913,68.2415558 89.0972364,68.591607 C88.2497441,69.0706244 87.604913,69.1811668 85.8362334,69.2180143 L85.8362334,64.6857728 Z M108.852098,75.1873081 C108.151996,75.1320368 107.783521,74.9477994 107.249232,74.321392 L103.453941,69.6601842 C105.793756,69.1995906 106.788639,68.2784033 106.788639,66.5834186 C106.788639,65.7911975 106.54913,65.1095189 106.070113,64.5752303 C105.37001,63.8198567 103.840839,63.3408393 102.109007,63.3408393 L97.0240532,63.3408393 L97.0240532,63.6908905 C98.3874104,63.8382805 98.5716479,64.0040942 98.5900716,65.3490276 L98.5900716,73.3265097 C98.5716479,74.8925281 98.4058342,75.0767656 97.0240532,75.1873081 L97.0240532,75.5373593 L102.127431,75.5373593 L102.127431,75.1873081 C100.708802,75.0951894 100.487718,74.8741044 100.469294,73.5291709 L100.469294,69.8996929 L101.501024,69.8628454 L105.885875,75.5373593 L108.852098,75.5373593 L108.852098,75.1873081 Z M100.469294,64.6857728 C100.469294,64.1699079 100.671955,64.0225179 101.408905,64.0225179 C103.711873,64.0225179 104.78045,64.814739 104.78045,66.5465711 C104.78045,67.4677584 104.393552,68.2415558 103.730297,68.591607 C102.882805,69.0706244 102.237973,69.1811668 100.469294,69.2180143 L100.469294,64.6857728 Z M111.657114,75.5373593 L117.128966,75.5373593 L117.128966,75.1873081 C115.618219,75.1504606 115.360287,74.8925281 115.323439,73.5291709 L115.323439,65.3490276 C115.360287,63.9672467 115.599795,63.7461617 117.128966,63.6908905 L117.128966,63.3408393 L111.657114,63.3408393 L111.657114,63.6908905 C113.223132,63.7830092 113.425793,63.9672467 113.444217,65.3490276 L113.444217,73.5291709 C113.425793,74.9293756 113.204708,75.1320368 111.657114,75.1873081 L111.657114,75.5373593 Z M127.653531,63.0829069 L127.266633,63.0829069 C127.192938,63.506653 126.990276,63.7093142 126.677073,63.7093142 C126.492835,63.7093142 126.179632,63.6356192 125.866428,63.4882293 C125.184749,63.2302968 124.503071,63.0829069 123.895087,63.0829069 C123.12129,63.0829069 122.310645,63.3961105 121.702661,63.9303992 C121.05783,64.5015353 120.726203,65.2753327 120.726203,66.2333675 C120.726203,67.7072671 121.536847,68.7389969 123.600307,69.825998 C124.926817,70.5445241 125.884852,71.2814739 126.345445,71.9815763 C126.511259,72.221085 126.603378,72.6079836 126.603378,73.0685773 C126.603378,74.2845445 125.68219,75.1320368 124.337257,75.1320368 C122.67912,75.1320368 121.536847,74.1187308 120.61566,71.8710338 L120.191914,71.8710338 L120.744626,75.776868 L121.149949,75.776868 C121.168373,75.4268168 121.389458,75.1688843 121.665814,75.1688843 C121.868475,75.1688843 122.181679,75.2425793 122.53173,75.3715455 C123.231832,75.6479017 123.987206,75.7952917 124.705732,75.7952917 C126.842886,75.7952917 128.464176,74.3398158 128.464176,72.4421699 C128.464176,70.9314227 127.45087,69.7338792 125.018936,68.4073695 C123.084442,67.357216 122.310645,66.5465711 122.310645,65.5332651 C122.310645,64.5199591 123.084442,63.8382805 124.226714,63.8382805 C125.055783,63.8382805 125.82958,64.1883316 126.474411,64.8515865 C127.045548,65.4411464 127.30348,65.9201638 127.59826,67.0071648 L128.058854,67.0071648 L127.653531,63.0829069 Z M139.596725,75.1873081 C138.085977,75.1136131 137.846469,74.8741044 137.828045,73.5291709 L137.828045,64.1146366 L138.822927,64.1146366 C140.960082,64.1514841 141.346981,64.4646878 141.752303,66.4728762 L142.194473,66.4728762 L142.08393,63.3408393 L131.692938,63.3408393 L131.582395,66.4728762 L132.024565,66.4728762 C132.448311,64.4646878 132.83521,64.1514841 134.953941,64.1146366 L135.948823,64.1146366 L135.948823,73.3265097 C135.930399,74.9109519 135.764585,75.0951894 134.216991,75.1873081 L134.216991,75.5373593 L139.596725,75.5373593 L139.596725,75.1873081 Z M155.77738,72.4237462 L155.261515,72.4237462 C154.377175,74.3766633 153.548106,74.8372569 150.913511,74.8556807 L150.41607,74.8556807 C148.5,74.8004094 148.481576,74.7819857 148.481576,74.0634596 L148.481576,69.5127943 L151.318833,69.5127943 C152.866428,69.5496418 153.105937,69.7707267 153.345445,71.2814739 L153.769191,71.2814739 L153.769191,67.0071648 L153.345445,67.0071648 C153.12436,68.4994882 152.866428,68.7205732 151.318833,68.7574207 L148.481576,68.7574207 L148.481576,64.667349 C148.5,64.1146366 148.573695,64.0409417 149.08956,64.0409417 L151.576766,64.0409417 C153.71392,64.0777892 154.082395,64.3357216 154.377175,65.975435 L154.837769,65.975435 L154.782497,63.3408393 L144.999488,63.3408393 L144.999488,63.6908905 C146.344422,63.7830092 146.565507,64.0225179 146.602354,65.3490276 L146.602354,73.5291709 C146.565507,74.8556807 146.325998,75.1136131 144.999488,75.1873081 L144.999488,75.5373593 L154.948311,75.5373593 L155.77738,72.4237462 Z M170.134084,75.1873081 C169.433982,75.1320368 169.065507,74.9477994 168.531218,74.321392 L164.735926,69.6601842 C167.075742,69.1995906 168.070624,68.2784033 168.070624,66.5834186 C168.070624,65.7911975 167.831116,65.1095189 167.352098,64.5752303 C166.651996,63.8198567 165.122825,63.3408393 163.390993,63.3408393 L158.306039,63.3408393 L158.306039,63.6908905 C159.669396,63.8382805 159.853634,64.0040942 159.872057,65.3490276 L159.872057,73.3265097 C159.853634,74.8925281 159.68782,75.0767656 158.306039,75.1873081 L158.306039,75.5373593 L163.409417,75.5373593 L163.409417,75.1873081 C161.990788,75.0951894 161.769703,74.8741044 161.751279,73.5291709 L161.751279,69.8996929 L162.783009,69.8628454 L167.167861,75.5373593 L170.134084,75.5373593 L170.134084,75.1873081 Z M161.751279,64.6857728 C161.751279,64.1699079 161.953941,64.0225179 162.69089,64.0225179 C164.993859,64.0225179 166.062436,64.814739 166.062436,66.5465711 C166.062436,67.4677584 165.675537,68.2415558 165.012282,68.591607 C164.16479,69.0706244 163.519959,69.1811668 161.751279,69.2180143 L161.751279,64.6857728 Z M180.400716,63.0829069 L180.013818,63.0829069 C179.940123,63.506653 179.737462,63.7093142 179.424258,63.7093142 C179.24002,63.7093142 178.926817,63.6356192 178.613613,63.4882293 C177.931934,63.2302968 177.250256,63.0829069 176.642272,63.0829069 C175.868475,63.0829069 175.05783,63.3961105 174.449846,63.9303992 C173.805015,64.5015353 173.473388,65.2753327 173.473388,66.2333675 C173.473388,67.7072671 174.284033,68.7389969 176.347492,69.825998 C177.674002,70.5445241 178.632037,71.2814739 179.092631,71.9815763 C179.258444,72.221085 179.350563,72.6079836 179.350563,73.0685773 C179.350563,74.2845445 178.429376,75.1320368 177.084442,75.1320368 C175.426305,75.1320368 174.284033,74.1187308 173.362845,71.8710338 L172.939099,71.8710338 L173.491812,75.776868 L173.897134,75.776868 C173.915558,75.4268168 174.136643,75.1688843 174.412999,75.1688843 C174.61566,75.1688843 174.928864,75.2425793 175.278915,75.3715455 C175.979017,75.6479017 176.734391,75.7952917 177.452917,75.7952917 C179.590072,75.7952917 181.211361,74.3398158 181.211361,72.4421699 C181.211361,70.9314227 180.198055,69.7338792 177.766121,68.4073695 C175.831627,67.357216 175.05783,66.5465711 175.05783,65.5332651 C175.05783,64.5199591 175.831627,63.8382805 176.9739,63.8382805 C177.802968,63.8382805 178.576766,64.1883316 179.221597,64.8515865 C179.792733,65.4411464 180.050665,65.9201638 180.345445,67.0071648 L180.806039,67.0071648 L180.400716,63.0829069 Z M204.029171,67.6888434 L200.049642,67.6888434 L200.049642,68.0757421 C200.970829,68.1678608 201.228762,68.3520983 201.228762,68.9048106 C201.228762,69.7154555 200.749744,70.6734903 199.552201,72.2579324 C198.520471,70.986694 197.930911,70.0470829 197.120266,68.4626407 C199.220573,67.4677584 199.975947,66.6386899 199.975947,65.3121801 C199.975947,64.0040942 198.944217,63.0829069 197.488741,63.0829069 C195.904299,63.0829069 194.651484,64.3357216 194.651484,65.9201638 C194.651484,66.6202661 194.798874,67.209826 195.296315,68.591607 L194.596213,68.9969294 C192.643296,70.1207779 191.703685,71.4288639 191.703685,72.9764585 C191.703685,74.7267144 192.882805,75.776868 194.854145,75.776868 C196.346469,75.776868 197.451894,75.3162743 198.833675,74.1003071 C199.994371,75.2978506 200.897134,75.776868 201.965711,75.776868 C203.144831,75.776868 204.194985,75.0030706 204.747697,73.6949846 L204.471341,73.4923234 C203.881781,74.2292733 203.476459,74.468782 202.813204,74.468782 C201.781474,74.468782 200.841863,73.8976459 199.975947,72.7737973 C200.786592,71.6867963 201.247185,71.0051177 201.818321,70.0102354 L202.297339,69.1627431 C202.739509,68.4073695 203.107984,68.1862845 204.029171,68.0757421 L204.029171,67.6888434 Z M196.84391,67.8730809 C196.291198,66.7123849 196.10696,66.0122825 196.10696,65.1832139 C196.10696,64.2804504 196.678096,63.6724667 197.525589,63.6724667 C198.373081,63.6724667 198.999488,64.3357216 198.999488,65.2384852 C198.999488,66.2517912 198.31781,67.0992835 196.84391,67.8730809 Z M195.572671,69.2180143 C196.678096,71.3183214 197.322927,72.3316274 198.373081,73.6212897 C197.267656,74.4872057 196.567554,74.8188332 195.775333,74.8188332 C194.467247,74.8188332 193.398669,73.6581372 193.398669,72.221085 C193.398669,71.0419652 193.969806,70.2497441 195.572671,69.2180143 Z M222.019959,63.0829069 L221.63306,63.0829069 C221.559365,63.506653 221.356704,63.7093142 221.043501,63.7093142 C220.859263,63.7093142 220.546059,63.6356192 220.232856,63.4882293 C219.551177,63.2302968 218.869498,63.0829069 218.261515,63.0829069 C217.487718,63.0829069 216.677073,63.3961105 216.069089,63.9303992 C215.424258,64.5015353 215.092631,65.2753327 215.092631,66.2333675 C215.092631,67.7072671 215.903275,68.7389969 217.966735,69.825998 C219.293245,70.5445241 220.251279,71.2814739 220.711873,71.9815763 C220.877687,72.221085 220.969806,72.6079836 220.969806,73.0685773 C220.969806,74.2845445 220.048618,75.1320368 218.703685,75.1320368 C217.045548,75.1320368 215.903275,74.1187308 214.982088,71.8710338 L214.558342,71.8710338 L215.111054,75.776868 L215.516377,75.776868 C215.5348,75.4268168 215.755885,75.1688843 216.032242,75.1688843 C216.234903,75.1688843 216.548106,75.2425793 216.898158,75.3715455 C217.59826,75.6479017 218.353634,75.7952917 219.07216,75.7952917 C221.209314,75.7952917 222.830604,74.3398158 222.830604,72.4421699 C222.830604,70.9314227 221.817298,69.7338792 219.385363,68.4073695 C217.45087,67.357216 216.677073,66.5465711 216.677073,65.5332651 C216.677073,64.5199591 217.45087,63.8382805 218.593142,63.8382805 C219.422211,63.8382805 220.196008,64.1883316 220.840839,64.8515865 C221.411975,65.4411464 221.669908,65.9201638 221.964688,67.0071648 L222.425281,67.0071648 L222.019959,63.0829069 Z M232.305015,63.0829069 C228.78608,63.0829069 226.28045,65.7175026 226.28045,69.4390993 C226.28045,71.1709314 226.87001,72.8659161 227.864893,73.9160696 C228.93347,75.0767656 230.573183,75.7952917 232.194473,75.7952917 C235.823951,75.7952917 238.32958,73.234391 238.32958,69.5127943 C238.32958,67.6888434 237.795292,66.1044012 236.781986,65.0174002 C235.62129,63.7461617 234.073695,63.0829069 232.305015,63.0829069 Z M232.305015,63.7461617 C233.152508,63.7461617 234,64.0777892 234.663255,64.667349 C235.658137,65.5701126 236.229273,67.3019447 236.229273,69.4943705 C236.229273,70.5813715 235.989765,71.85261 235.62129,72.8106448 C235.455476,73.2712385 235.142272,73.7318321 234.718526,74.1555783 C234.073695,74.8004094 233.244626,75.1320368 232.268168,75.1320368 C231.420676,75.1320368 230.591607,74.8004094 229.928352,74.2292733 C228.988741,73.381781 228.380757,71.5209826 228.380757,69.4759468 C228.380757,67.5967247 228.896622,65.8096213 229.67042,64.9437052 C230.388946,64.1514841 231.291709,63.7461617 232.305015,63.7461617 Z M246.330092,63.3408393 L241.134596,63.3408393 L241.134596,63.6908905 C242.479529,63.7830092 242.700614,64.0225179 242.737462,65.3490276 L242.737462,73.5291709 C242.700614,74.8556807 242.461105,75.1136131 241.134596,75.1873081 L241.134596,75.5373593 L251.046571,75.5373593 L251.930911,72.3316274 L251.470317,72.3316274 C250.604401,74.2661208 249.81218,74.7451382 247.435517,74.8188332 L246.201126,74.8188332 C244.782497,74.7819857 244.635107,74.7267144 244.616684,74.0634596 L244.616684,65.3490276 C244.653531,64.0040942 244.89304,63.7645855 246.330092,63.6908905 L246.330092,63.3408393 Z M254.45957,75.5373593 L259.931423,75.5373593 L259.931423,75.1873081 C258.420676,75.1504606 258.162743,74.8925281 258.125896,73.5291709 L258.125896,65.3490276 C258.162743,63.9672467 258.402252,63.7461617 259.931423,63.6908905 L259.931423,63.3408393 L254.45957,63.3408393 L254.45957,63.6908905 C256.025589,63.7830092 256.22825,63.9672467 256.246673,65.3490276 L256.246673,73.5291709 C256.22825,74.9293756 256.007165,75.1320368 254.45957,75.1873081 L254.45957,75.5373593 Z M273.643296,67.2282497 L273.477482,63.0829069 L273.090583,63.0829069 C272.980041,63.4698055 272.685261,63.6908905 272.316786,63.6908905 C272.150972,63.6908905 271.874616,63.6356192 271.59826,63.5435005 C270.695496,63.2302968 269.774309,63.0829069 268.908393,63.0829069 C267.397646,63.0829069 265.886899,63.654043 264.726203,64.667349 C263.43654,65.8096213 262.736438,67.5046059 262.736438,69.531218 C262.736438,73.2896622 265.186796,75.7952917 268.853122,75.7952917 C270.935005,75.7952917 272.77738,74.9477994 273.882805,73.4554759 L273.551177,73.1238485 C272.18782,74.4319345 270.971853,74.9846469 269.442682,74.9846469 C268.281986,74.9846469 267.250256,74.616172 266.458035,73.9160696 C265.444729,73.013306 264.873593,71.3551689 264.873593,69.3101331 C264.873593,65.9570113 266.587001,63.8198567 269.258444,63.8198567 C270.308598,63.8198567 271.266633,64.2067554 272.003582,64.9252815 C272.593142,65.5148414 272.869498,66.0307062 273.21955,67.2282497 L273.643296,67.2282497 Z M276.798362,75.5373593 L282.270215,75.5373593 L282.270215,75.1873081 C280.759468,75.1504606 280.501535,74.8925281 280.464688,73.5291709 L280.464688,65.3490276 C280.501535,63.9672467 280.741044,63.7461617 282.270215,63.6908905 L282.270215,63.3408393 L276.798362,63.3408393 L276.798362,63.6908905 C278.364381,63.7830092 278.567042,63.9672467 278.585466,65.3490276 L278.585466,73.5291709 C278.567042,74.9293756 278.345957,75.1320368 276.798362,75.1873081 L276.798362,75.5373593 Z M293.126407,75.1873081 C291.61566,75.1136131 291.376151,74.8741044 291.357728,73.5291709 L291.357728,64.1146366 L292.35261,64.1146366 C294.489765,64.1514841 294.876663,64.4646878 295.281986,66.4728762 L295.724156,66.4728762 L295.613613,63.3408393 L285.22262,63.3408393 L285.112078,66.4728762 L285.554248,66.4728762 C285.977994,64.4646878 286.364893,64.1514841 288.483623,64.1146366 L289.478506,64.1146366 L289.478506,73.3265097 C289.460082,74.9109519 289.294268,75.0951894 287.746673,75.1873081 L287.746673,75.5373593 L293.126407,75.5373593 L293.126407,75.1873081 Z M304.516888,63.0829069 C300.997953,63.0829069 298.492323,65.7175026 298.492323,69.4390993 C298.492323,71.1709314 299.081883,72.8659161 300.076766,73.9160696 C301.145343,75.0767656 302.785056,75.7952917 304.406346,75.7952917 C308.035824,75.7952917 310.541453,73.234391 310.541453,69.5127943 C310.541453,67.6888434 310.007165,66.1044012 308.993859,65.0174002 C307.833163,63.7461617 306.285568,63.0829069 304.516888,63.0829069 Z M304.516888,63.7461617 C305.364381,63.7461617 306.211873,64.0777892 306.875128,64.667349 C307.87001,65.5701126 308.441146,67.3019447 308.441146,69.4943705 C308.441146,70.5813715 308.201638,71.85261 307.833163,72.8106448 C307.667349,73.2712385 307.354145,73.7318321 306.930399,74.1555783 C306.285568,74.8004094 305.456499,75.1320368 304.480041,75.1320368 C303.632549,75.1320368 302.80348,74.8004094 302.140225,74.2292733 C301.200614,73.381781 300.592631,71.5209826 300.592631,69.4759468 C300.592631,67.5967247 301.108495,65.8096213 301.882293,64.9437052 C302.600819,64.1514841 303.503582,63.7461617 304.516888,63.7461617 Z M325.266633,75.1873081 C324.56653,75.1320368 324.198055,74.9477994 323.663767,74.321392 L319.868475,69.6601842 C322.208291,69.1995906 323.203173,68.2784033 323.203173,66.5834186 C323.203173,65.7911975 322.963664,65.1095189 322.484647,64.5752303 C321.784545,63.8198567 320.255374,63.3408393 318.523541,63.3408393 L313.438588,63.3408393 L313.438588,63.6908905 C314.801945,63.8382805 314.986182,64.0040942 315.004606,65.3490276 L315.004606,73.3265097 C314.986182,74.8925281 314.820368,75.0767656 313.438588,75.1873081 L313.438588,75.5373593 L318.541965,75.5373593 L318.541965,75.1873081 C317.123337,75.0951894 316.902252,74.8741044 316.883828,73.5291709 L316.883828,69.8996929 L317.915558,69.8628454 L322.300409,75.5373593 L325.266633,75.5373593 L325.266633,75.1873081 Z M316.883828,64.6857728 C316.883828,64.1699079 317.086489,64.0225179 317.823439,64.0225179 C320.126407,64.0225179 321.194985,64.814739 321.194985,66.5465711 C321.194985,67.4677584 320.808086,68.2415558 320.144831,68.591607 C319.297339,69.0706244 318.652508,69.1811668 316.883828,69.2180143 L316.883828,64.6857728 Z M335.60696,63.0829069 L335.220061,63.0829069 C335.146366,63.506653 334.943705,63.7093142 334.630502,63.7093142 C334.446264,63.7093142 334.13306,63.6356192 333.819857,63.4882293 C333.138178,63.2302968 332.456499,63.0829069 331.848516,63.0829069 C331.074719,63.0829069 330.264074,63.3961105 329.65609,63.9303992 C329.011259,64.5015353 328.679632,65.2753327 328.679632,66.2333675 C328.679632,67.7072671 329.490276,68.7389969 331.553736,69.825998 C332.880246,70.5445241 333.83828,71.2814739 334.298874,71.9815763 C334.464688,72.221085 334.556807,72.6079836 334.556807,73.0685773 C334.556807,74.2845445 333.635619,75.1320368 332.290686,75.1320368 C330.632549,75.1320368 329.490276,74.1187308 328.569089,71.8710338 L328.145343,71.8710338 L328.698055,75.776868 L329.103378,75.776868 C329.121801,75.4268168 329.342886,75.1688843 329.619243,75.1688843 C329.821904,75.1688843 330.135107,75.2425793 330.485159,75.3715455 C331.185261,75.6479017 331.940635,75.7952917 332.659161,75.7952917 C334.796315,75.7952917 336.417605,74.3398158 336.417605,72.4421699 C336.417605,70.9314227 335.404299,69.7338792 332.972364,68.4073695 C331.037871,67.357216 330.264074,66.5465711 330.264074,65.5332651 C330.264074,64.5199591 331.037871,63.8382805 332.180143,63.8382805 C333.009212,63.8382805 333.783009,64.1883316 334.42784,64.8515865 C334.998976,65.4411464 335.256909,65.9201638 335.551689,67.0071648 L336.012282,67.0071648 L335.60696,63.0829069 Z" id="Barristers-&amp;-Solicit"></path>
                <path d="M129.540583,107.668833 L129.140788,107.668833 C128.455425,109.182344 127.812897,109.539304 125.771085,109.553582 L125.385568,109.553582 C123.900614,109.510747 123.886336,109.496469 123.886336,108.939611 L123.886336,105.412845 L126.08521,105.412845 C127.284596,105.441402 127.470215,105.612743 127.655834,106.783572 L127.984237,106.783572 L127.984237,103.470983 L127.655834,103.470983 C127.484493,104.627533 127.284596,104.798874 126.08521,104.827431 L123.886336,104.827431 L123.886336,101.657625 C123.900614,101.229273 123.957728,101.17216 124.357523,101.17216 L126.285107,101.17216 C127.941402,101.200716 128.22697,101.400614 128.455425,102.671392 L128.812385,102.671392 L128.76955,100.62958 L121.187718,100.62958 L121.187718,100.90087 C122.230041,100.972262 122.401382,101.157881 122.429939,102.185926 L122.429939,108.525537 C122.401382,109.553582 122.215763,109.75348 121.187718,109.810594 L121.187718,110.081883 L128.898055,110.081883 L129.540583,107.668833 Z M138.468731,100.429683 L138.168884,100.429683 C138.111771,100.758086 137.954708,100.915148 137.711975,100.915148 C137.569191,100.915148 137.326459,100.858035 137.083726,100.743808 C136.555425,100.54391 136.027124,100.429683 135.555937,100.429683 C134.956244,100.429683 134.327994,100.672416 133.856807,101.086489 C133.357062,101.52912 133.100051,102.128813 133.100051,102.87129 C133.100051,104.013562 133.728301,104.813153 135.327482,105.655578 C136.355527,106.212436 137.098004,106.783572 137.454964,107.326151 C137.58347,107.511771 137.654862,107.811617 137.654862,108.168577 C137.654862,109.110952 136.940942,109.767758 135.898618,109.767758 C134.613562,109.767758 133.728301,108.982446 133.014381,107.240481 L132.685977,107.240481 L133.11433,110.267503 L133.428454,110.267503 C133.442733,109.996213 133.614074,109.796315 133.82825,109.796315 C133.985312,109.796315 134.228045,109.853429 134.499335,109.953378 C135.041914,110.167554 135.627329,110.281781 136.184186,110.281781 C137.840481,110.281781 139.096981,109.153787 139.096981,107.683112 C139.096981,106.512282 138.311668,105.584186 136.426919,104.556141 C134.927687,103.742272 134.327994,103.114023 134.327994,102.32871 C134.327994,101.543398 134.927687,101.015097 135.812948,101.015097 C136.455476,101.015097 137.055169,101.286387 137.554913,101.800409 C137.997544,102.257318 138.197441,102.628557 138.425896,103.470983 L138.782856,103.470983 L138.468731,100.429683 Z M148.510594,109.810594 C147.339765,109.75348 147.154145,109.567861 147.139867,108.525537 L147.139867,101.229273 L147.910901,101.229273 C149.567195,101.25783 149.867042,101.500563 150.181167,103.056909 L150.523849,103.056909 L150.438178,100.62958 L142.385159,100.62958 L142.299488,103.056909 L142.64217,103.056909 C142.970573,101.500563 143.27042,101.25783 144.912436,101.229273 L145.68347,101.229273 L145.68347,108.368475 C145.669191,109.596418 145.540686,109.739202 144.3413,109.810594 L144.3413,110.081883 L148.510594,110.081883 L148.510594,109.810594 Z M162.407625,109.810594 C161.765097,109.767758 161.622313,109.624974 161.122569,108.568373 L157.567247,100.45824 L157.281679,100.45824 L154.311771,107.468936 C153.397953,109.553582 153.226612,109.782037 152.541249,109.810594 L152.541249,110.081883 L155.368373,110.081883 L155.368373,109.810594 C154.683009,109.810594 154.397441,109.639253 154.397441,109.225179 C154.397441,109.053838 154.440276,108.853941 154.511668,108.668321 L155.168475,106.997748 L158.909417,106.997748 L159.494831,108.368475 C159.666172,108.753992 159.766121,109.12523 159.766121,109.325128 C159.766121,109.682088 159.523388,109.796315 158.766633,109.810594 L158.766633,110.081883 L162.407625,110.081883 L162.407625,109.810594 Z M155.411208,106.412334 L157.053224,102.485773 L158.709519,106.412334 L155.411208,106.412334 Z M165.424514,100.90087 C166.6239,100.972262 166.780962,101.115046 166.795241,102.185926 L166.795241,108.525537 C166.780962,109.596418 166.595343,109.767758 165.424514,109.810594 L165.424514,110.081883 L170.193501,110.081883 C171.292938,110.081883 172.320983,109.782037 172.849284,109.296571 C173.363306,108.839662 173.648874,108.197134 173.648874,107.511771 C173.648874,106.883521 173.406141,106.312385 172.949232,105.898311 C172.52088,105.512794 172.135363,105.341453 171.207267,105.112999 C171.949744,104.92738 172.249591,104.784596 172.592272,104.484749 C172.949232,104.170624 173.163408,103.656602 173.163408,103.056909 C173.163408,101.457728 171.878352,100.62958 169.422467,100.62958 L165.424514,100.62958 L165.424514,100.90087 Z M168.251638,105.427124 C169.636643,105.427124 170.293449,105.512794 170.807472,105.72697 C171.621341,106.055374 172.006858,106.640788 172.006858,107.526049 C172.006858,108.297083 171.707011,108.853941 171.135875,109.182344 C170.678966,109.439355 170.093552,109.553582 169.151177,109.553582 C168.451535,109.553582 168.251638,109.425077 168.251638,108.968168 L168.251638,105.427124 Z M168.251638,104.870266 L168.251638,101.586233 C168.265916,101.272108 168.32303,101.186438 168.565763,101.17216 L169.194012,101.157881 C170.778915,101.115046 171.707011,101.843245 171.707011,103.114023 C171.707011,104.242016 170.978813,104.841709 169.608086,104.855988 L168.251638,104.870266 Z M181.206295,100.62958 L177.179785,100.62958 L177.179785,100.90087 C178.222108,100.972262 178.393449,101.157881 178.422006,102.185926 L178.422006,108.525537 C178.393449,109.553582 178.20783,109.75348 177.179785,109.810594 L177.179785,110.081883 L184.861566,110.081883 L185.546929,107.597441 L185.189969,107.597441 C184.518884,109.096673 183.904913,109.467912 182.062999,109.525026 L181.106346,109.525026 C180.006909,109.496469 179.892682,109.453634 179.878403,108.939611 L179.878403,102.185926 C179.90696,101.143603 180.092579,100.957984 181.206295,100.90087 L181.206295,100.62958 Z M188.292528,110.081883 L192.533214,110.081883 L192.533214,109.810594 C191.362385,109.782037 191.162487,109.582139 191.13393,108.525537 L191.13393,102.185926 C191.162487,101.115046 191.348106,100.943705 192.533214,100.90087 L192.533214,100.62958 L188.292528,100.62958 L188.292528,100.90087 C189.506192,100.972262 189.663255,101.115046 189.677533,102.185926 L189.677533,108.525537 C189.663255,109.610696 189.491914,109.767758 188.292528,109.810594 L188.292528,110.081883 Z M201.47564,100.429683 L201.175793,100.429683 C201.11868,100.758086 200.961617,100.915148 200.718884,100.915148 C200.5761,100.915148 200.333367,100.858035 200.090635,100.743808 C199.562334,100.54391 199.034033,100.429683 198.562845,100.429683 C197.963153,100.429683 197.334903,100.672416 196.863715,101.086489 C196.363971,101.52912 196.10696,102.128813 196.10696,102.87129 C196.10696,104.013562 196.73521,104.813153 198.334391,105.655578 C199.362436,106.212436 200.104913,106.783572 200.461873,107.326151 C200.590379,107.511771 200.661771,107.811617 200.661771,108.168577 C200.661771,109.110952 199.947851,109.767758 198.905527,109.767758 C197.620471,109.767758 196.73521,108.982446 196.02129,107.240481 L195.692886,107.240481 L196.121238,110.267503 L196.435363,110.267503 C196.449642,109.996213 196.620983,109.796315 196.835159,109.796315 C196.992221,109.796315 197.234954,109.853429 197.506244,109.953378 C198.048823,110.167554 198.634237,110.281781 199.191095,110.281781 C200.84739,110.281781 202.103889,109.153787 202.103889,107.683112 C202.103889,106.512282 201.318577,105.584186 199.433828,104.556141 C197.934596,103.742272 197.334903,103.114023 197.334903,102.32871 C197.334903,101.543398 197.934596,101.015097 198.819857,101.015097 C199.462385,101.015097 200.062078,101.286387 200.561822,101.800409 C201.004452,102.257318 201.20435,102.628557 201.432805,103.470983 L201.789765,103.470983 L201.47564,100.429683 Z M205.606244,110.081883 L209.57564,110.081883 L209.57564,109.810594 C208.504759,109.724923 208.333419,109.553582 208.31914,108.525537 L208.31914,105.584186 L212.645496,105.584186 L212.645496,108.368475 C212.631218,109.582139 212.502712,109.739202 211.388997,109.810594 L211.388997,110.081883 L215.358393,110.081883 L215.358393,109.810594 C214.287513,109.724923 214.116172,109.553582 214.101894,108.525537 L214.101894,102.185926 C214.116172,101.143603 214.258956,101.000819 215.358393,100.90087 L215.358393,100.62958 L211.388997,100.62958 L211.388997,100.90087 C212.488434,100.98654 212.631218,101.129324 212.645496,102.185926 L212.645496,104.955937 L208.31914,104.955937 L208.31914,102.185926 C208.333419,101.143603 208.476203,101.000819 209.57564,100.90087 L209.57564,100.62958 L205.606244,100.62958 L205.606244,100.90087 C206.705681,100.98654 206.848465,101.129324 206.862743,102.185926 L206.862743,108.368475 C206.848465,109.582139 206.719959,109.739202 205.606244,109.810594 L205.606244,110.081883 Z M226.471136,107.668833 L226.071341,107.668833 C225.385977,109.182344 224.743449,109.539304 222.701638,109.553582 L222.316121,109.553582 C220.831167,109.510747 220.816888,109.496469 220.816888,108.939611 L220.816888,105.412845 L223.015763,105.412845 C224.215148,105.441402 224.400768,105.612743 224.586387,106.783572 L224.91479,106.783572 L224.91479,103.470983 L224.586387,103.470983 C224.415046,104.627533 224.215148,104.798874 223.015763,104.827431 L220.816888,104.827431 L220.816888,101.657625 C220.831167,101.229273 220.88828,101.17216 221.288076,101.17216 L223.21566,101.17216 C224.871955,101.200716 225.157523,101.400614 225.385977,102.671392 L225.742938,102.671392 L225.700102,100.62958 L218.11827,100.62958 L218.11827,100.90087 C219.160594,100.972262 219.331934,101.157881 219.360491,102.185926 L219.360491,108.525537 C219.331934,109.553582 219.146315,109.75348 218.11827,109.810594 L218.11827,110.081883 L225.828608,110.081883 L226.471136,107.668833 Z M229.202456,110.081883 L233.257523,110.081883 C234.913818,110.081883 236.41305,109.610696 237.298311,108.811105 C238.226407,107.96868 238.754708,106.697902 238.754708,105.312897 C238.754708,104.02784 238.340635,102.914125 237.541044,102.128813 C236.570113,101.143603 235.013767,100.62958 233.057625,100.62958 L229.202456,100.62958 L229.202456,100.90087 C230.33045,101.000819 230.444678,101.115046 230.458956,102.185926 L230.458956,108.525537 C230.444678,109.567861 230.273337,109.739202 229.202456,109.810594 L229.202456,110.081883 Z M231.915353,101.714739 C231.915353,101.272108 232.058137,101.157881 232.65783,101.157881 C233.900051,101.157881 234.813869,101.386336 235.499232,101.871801 C236.612948,102.642835 237.198362,103.870778 237.198362,105.412845 C237.198362,107.097697 236.612948,108.297083 235.456397,108.968168 C234.728199,109.382242 233.900051,109.553582 232.65783,109.553582 C232.086694,109.553582 231.915353,109.425077 231.915353,108.968168 L231.915353,101.714739 Z M249.143398,110.081883 L253.084237,110.081883 L253.084237,109.867707 C251.9848,109.867707 251.742068,109.710645 251.727789,109.025281 L251.727789,100.45824 L251.613562,100.429683 L249.043449,101.729017 L249.043449,101.928915 C249.600307,101.714739 249.942989,101.61479 250.071494,101.61479 C250.371341,101.61479 250.499846,101.828966 250.499846,102.285875 L250.499846,108.753992 C250.47129,109.653531 250.228557,109.853429 249.143398,109.867707 L249.143398,110.081883 Z M261.041453,104.784596 C262.455015,104.02784 262.954759,103.428147 262.954759,102.457216 C262.954759,101.272108 261.940993,100.429683 260.498874,100.429683 C258.942528,100.429683 257.785977,101.386336 257.785977,102.68567 C257.785977,103.613767 258.057267,104.02784 259.556499,105.341453 C258.000154,106.526561 257.700307,106.940635 257.700307,107.925844 C257.700307,109.325128 258.814023,110.281781 260.44176,110.281781 C262.155169,110.281781 263.254606,109.339406 263.254606,107.868731 C263.254606,106.755015 262.76914,106.08393 261.041453,104.784596 Z M260.784442,106.255271 C261.826766,106.997748 262.169447,107.511771 262.169447,108.311361 C262.169447,109.239458 261.526919,109.881986 260.598823,109.881986 C259.513664,109.881986 258.785466,109.053838 258.785466,107.825896 C258.785466,106.897799 259.085312,106.312385 259.927738,105.627021 L260.784442,106.255271 Z M260.62738,104.527584 C259.356602,103.699437 258.842579,103.042631 258.842579,102.24304 C258.842579,101.414893 259.485107,100.829478 260.384647,100.829478 C261.355578,100.829478 261.96955,101.457728 261.96955,102.442938 C261.96955,103.31392 261.598311,103.899335 260.62738,104.527584 Z M270.483623,104.784596 C271.897185,104.02784 272.396929,103.428147 272.396929,102.457216 C272.396929,101.272108 271.383163,100.429683 269.941044,100.429683 C268.384698,100.429683 267.228147,101.386336 267.228147,102.68567 C267.228147,103.613767 267.499437,104.02784 268.998669,105.341453 C267.442323,106.526561 267.142477,106.940635 267.142477,107.925844 C267.142477,109.325128 268.256192,110.281781 269.88393,110.281781 C271.597339,110.281781 272.696776,109.339406 272.696776,107.868731 C272.696776,106.755015 272.21131,106.08393 270.483623,104.784596 Z M270.226612,106.255271 C271.268936,106.997748 271.611617,107.511771 271.611617,108.311361 C271.611617,109.239458 270.969089,109.881986 270.040993,109.881986 C268.955834,109.881986 268.227636,109.053838 268.227636,107.825896 C268.227636,106.897799 268.527482,106.312385 269.369908,105.627021 L270.226612,106.255271 Z M270.06955,104.527584 C268.798772,103.699437 268.284749,103.042631 268.284749,102.24304 C268.284749,101.414893 268.927277,100.829478 269.826817,100.829478 C270.797748,100.829478 271.41172,101.457728 271.41172,102.442938 C271.41172,103.31392 271.040481,103.899335 270.06955,104.527584 Z M282.524463,106.783572 L281.068066,106.783572 L281.068066,100.429683 L280.439816,100.429683 L275.956397,106.783572 L275.956397,107.69739 L279.968628,107.69739 L279.968628,110.081883 L281.068066,110.081883 L281.068066,107.69739 L282.524463,107.69739 L282.524463,106.783572 Z M279.95435,106.783572 L276.527533,106.783572 L279.95435,101.88608 L279.95435,106.783572 Z" id="Established-1884"></path>
            </g>
        </g>
    </g>
</svg>